<?xml version="1.0" encoding="UTF-8"?>
<svg width="24px" height="23px" viewBox="0 0 24 23" version="1.1" xmlns="http://www.w3.org/2000/svg" xmlns:xlink="http://www.w3.org/1999/xlink">
    <!-- Generator: Sketch 60.1 (88133) - https://sketch.com -->
    <title>accordion</title>
    <desc>Created with Sketch.</desc>
    <g id="Page-1" stroke="none" stroke-width="1" fill="none" fill-rule="evenodd">
        <g id="CircleLineIcons-14" transform="translate(-1571.000000, -1497.000000)" fill="#000000">
            <g id="accordion" transform="translate(1571.001036, 1497.085000)">
                <path d="M0.99896438,8.955 C0.67896438,8.955 0.35896438,8.795 0.16896438,8.505 C-0.14103562,8.045 -0.0110356203,7.425 0.44896438,7.125 L11.0189644,0.165 C11.3489644,-0.055 11.7789644,-0.055 12.1189644,0.165 L22.6789644,7.125 C23.1389644,7.425 23.2689644,8.045 22.9689644,8.505 C22.6589644,8.965 22.0389644,9.095 21.5789644,8.795 L11.5689644,2.195 L1.54896438,8.795 C1.37896438,8.905 1.18896438,8.955 0.99896438,8.955" id="Fill-2402"></path>
                <path d="M11.5689644,21.955 C11.3789644,21.955 11.1789644,21.905 11.0189644,21.795 L0.44896438,14.835 C-0.0110356203,14.535 -0.14103562,13.915 0.16896438,13.455 C0.46896438,12.995 1.08896438,12.865 1.54896438,13.165 L11.5689644,19.765 L21.5789644,13.165 C22.0389644,12.865 22.6589644,12.995 22.9689644,13.455 C23.2689644,13.915 23.1389644,14.535 22.6789644,14.835 L12.1189644,21.795 C11.9489644,21.905 11.7589644,21.955 11.5689644,21.955" id="Fill-2403"></path>
            </g>
        </g>
    </g>
</svg>