<?xml version="1.0" encoding="UTF-8"?>
<svg width="25px" height="24px" viewBox="0 0 25 24" version="1.1" xmlns="http://www.w3.org/2000/svg" xmlns:xlink="http://www.w3.org/1999/xlink">
    <!-- Generator: Sketch 60.1 (88133) - https://sketch.com -->
    <title>alert</title>
    <desc>Created with Sketch.</desc>
    <g id="Page-1" stroke="none" stroke-width="1" fill="none" fill-rule="evenodd">
        <g id="CircleLineIcons-14" transform="translate(-589.000000, -815.000000)" fill="#000000">
            <g id="alert" transform="translate(589.932325, 815.459000)">
                <path d="M1.16967455,21.589 C1.01767455,21.589 0.863674553,21.555 0.717674553,21.481 C0.225674553,21.231 0.0286745527,20.63 0.277674553,20.137 L0.557674553,19.592 C1.42067455,17.925 1.68067455,17.422 2.11867455,11.779 C2.55267455,6.154 6.40567455,2.227 11.4886746,2.227 C11.4916746,2.227 11.4926746,2.227 11.4956746,2.227 L12.1016746,2.227 C12.6546746,2.227 13.1016746,2.674 13.1016746,3.227 C13.1016746,3.779 12.6546746,4.227 12.1016746,4.227 L11.4946746,4.227 C11.4926746,4.227 11.4916746,4.227 11.4896746,4.227 C7.43167455,4.227 4.46767455,7.323 4.11267455,11.934 C3.66267455,17.741 3.37267455,18.506 2.33467455,20.512 L2.06267455,21.041 C1.88567455,21.389 1.53467455,21.589 1.16967455,21.589" id="Fill-1655"></path>
                <path d="M22.2436746,21.589 C21.8786746,21.589 21.5256746,21.388 21.3496746,21.039 L21.0766746,20.506 C20.0626746,18.541 19.7516746,17.718 19.3036746,11.934 C18.9426746,7.323 15.9766746,4.227 11.9236746,4.227 C11.9216746,4.227 11.9206746,4.227 11.9196746,4.227 L11.3126746,4.227 C10.7596746,4.227 10.3126746,3.779 10.3126746,3.227 C10.3126746,2.674 10.7596746,2.227 11.3126746,2.227 L11.9186746,2.227 C11.9206746,2.227 11.9216746,2.227 11.9236746,2.227 C17.0036746,2.227 20.8566746,6.153 21.2976746,11.778 C21.7336746,17.417 21.9936746,17.921 22.8536746,19.588 L23.1346746,20.139 C23.3836746,20.632 23.1856746,21.232 22.6926746,21.481 C22.5476746,21.555 22.3946746,21.589 22.2436746,21.589" id="Fill-1656"></path>
                <path d="M22.4156746,21.624 C22.3476746,21.624 22.2796746,21.617 22.2116746,21.604 C15.2426746,20.16 8.17167455,20.16 1.20367455,21.604 C0.658674553,21.713 0.131674553,21.367 0.0206745527,20.827 C-0.0903254473,20.286 0.256674553,19.757 0.796674553,19.645 C8.03767455,18.146 15.3776746,18.146 22.6176746,19.645 C23.1576746,19.757 23.5056746,20.286 23.3936746,20.827 C23.2966746,21.299 22.8796746,21.624 22.4156746,21.624" id="Fill-1657"></path>
                <path d="M11.7076746,4.02 C11.1546746,4.02 10.7076746,3.573 10.7076746,3.02 L10.7076746,1 C10.7076746,0.447 11.1546746,0 11.7076746,0 C12.2596746,0 12.7076746,0.447 12.7076746,1 L12.7076746,3.02 C12.7076746,3.573 12.2596746,4.02 11.7076746,4.02" id="Fill-1658"></path>
                <path d="M11.7056746,23.49 C10.0576746,23.49 8.71667455,22.149 8.71667455,20.501 C8.71667455,19.948 9.16467455,19.501 9.71667455,19.501 C10.2696746,19.501 10.7166746,19.948 10.7166746,20.501 C10.7166746,21.047 11.1606746,21.49 11.7056746,21.49 C12.2536746,21.49 12.6996746,21.047 12.6996746,20.501 C12.6996746,19.948 13.1466746,19.501 13.6996746,19.501 C14.2526746,19.501 14.6996746,19.948 14.6996746,20.501 C14.6996746,22.149 13.3566746,23.49 11.7056746,23.49" id="Fill-1659"></path>
            </g>
        </g>
    </g>
</svg>