<?xml version="1.0" encoding="UTF-8"?>
<svg width="25px" height="23px" viewBox="0 0 25 23" version="1.1" xmlns="http://www.w3.org/2000/svg" xmlns:xlink="http://www.w3.org/1999/xlink">
    <!-- Generator: Sketch 60.1 (88133) - https://sketch.com -->
    <title>blog</title>
    <desc>Created with Sketch.</desc>
    <g id="Page-1" stroke="none" stroke-width="1" fill="none" fill-rule="evenodd">
        <g id="CircleLineIcons-14" transform="translate(-467.000000, -1125.000000)" fill="#000000">
            <g id="blog" transform="translate(467.337000, 1125.538275)">
                <path d="M18.166,21.9817251 L4,21.9817251 C1.794,21.9817251 -2.84217094e-14,20.1817251 -2.84217094e-14,17.9817251 L-2.84217094e-14,16.8117251 C-2.84217094e-14,14.6017251 1.794,12.8117251 4,12.8117251 L18.166,12.8117251 C18.719,12.8117251 19.166,13.2617251 19.166,13.8117251 C19.166,14.3617251 18.719,14.8117251 18.166,14.8117251 L4,14.8117251 C2.897,14.8117251 2,15.7117251 2,16.8117251 L2,17.9817251 C2,19.0817251 2.897,19.9817251 4,19.9817251 L18.166,19.9817251 C18.719,19.9817251 19.166,20.4217251 19.166,20.9817251 C19.166,21.5317251 18.719,21.9817251 18.166,21.9817251" id="Fill-1286"></path>
                <path d="M6.425,3.69172514 C6.277,3.69172514 6.128,3.65172514 5.987,3.59172514 C5.491,3.34172514 5.285,2.74172514 5.527,2.25172514 C6.204,0.861725144 7.583,0.00172514428 9.125,0.00172514428 L23.541,0.00172514428 C24.094,0.00172514428 24.541,0.451725144 24.541,1.00172514 C24.541,1.55172514 24.094,2.00172514 23.541,2.00172514 L9.125,2.00172514 C8.353,2.00172514 7.664,2.43172514 7.324,3.13172514 C7.151,3.48172514 6.795,3.69172514 6.425,3.69172514" id="Fill-1287"></path>
                <path d="M1.353,16.3717251 C1.229,16.3717251 1.103,16.3517251 0.981,16.3017251 C0.469,16.1017251 0.22,15.5117251 0.426,15.0017251 L5.551,2.23172514 C5.756,1.72172514 6.337,1.47172514 6.851,1.68172514 C7.363,1.88172514 7.612,2.46172514 7.406,2.98172514 L2.281,15.7517251 C2.125,16.1417251 1.75,16.3717251 1.353,16.3717251" id="Fill-1288"></path>
                <path d="M18.416,22.0017251 C18.292,22.0017251 18.166,21.9817251 18.044,21.9317251 C17.531,21.7217251 17.282,21.1417251 17.488,20.6317251 L22.613,7.86172514 C22.818,7.34172514 23.4,7.09172514 23.913,7.30172514 C24.426,7.51172514 24.675,8.09172514 24.469,8.60172514 L19.344,21.3717251 C19.187,21.7617251 18.812,22.0017251 18.416,22.0017251" id="Fill-1289"></path>
                <path d="M18.166,14.8117251 C18.036,14.8117251 17.905,14.7917251 17.779,14.7317251 C17.269,14.5217251 17.03,13.9317251 17.244,13.4217251 L22.619,0.611725144 C22.832,0.101725144 23.422,-0.138274856 23.928,0.0817251443 C24.437,0.291725144 24.677,0.881725144 24.463,1.39172514 L19.088,14.2017251 C18.928,14.5817251 18.557,14.8117251 18.166,14.8117251" id="Fill-1290"></path>
                <path d="M17.478,16.9617251 L3.853,16.9617251 C3.577,16.9617251 3.353,16.7317251 3.353,16.4617251 C3.353,16.1817251 3.577,15.9617251 3.853,15.9617251 L17.478,15.9617251 C17.755,15.9617251 17.978,16.1817251 17.978,16.4617251 C17.978,16.7317251 17.755,16.9617251 17.478,16.9617251" id="Fill-1291"></path>
                <path d="M17.478,18.8117251 L3.853,18.8117251 C3.577,18.8117251 3.353,18.5917251 3.353,18.3117251 C3.353,18.0417251 3.577,17.8117251 3.853,17.8117251 L17.478,17.8117251 C17.755,17.8117251 17.978,18.0417251 17.978,18.3117251 C17.978,18.5917251 17.755,18.8117251 17.478,18.8117251" id="Fill-1292"></path>
            </g>
        </g>
    </g>
</svg>