<?xml version="1.0" encoding="UTF-8"?>
<svg width="24px" height="24px" viewBox="0 0 24 24" version="1.1" xmlns="http://www.w3.org/2000/svg" xmlns:xlink="http://www.w3.org/1999/xlink">
    <!-- Generator: Sketch 60.1 (88133) - https://sketch.com -->
    <title>breadcrumb</title>
    <desc>Created with Sketch.</desc>
    <g id="Page-1" stroke="none" stroke-width="1" fill="none" fill-rule="evenodd">
        <g id="CircleLineIcons-14" transform="translate(-1876.000000, -753.000000)" fill="#000000">
            <g id="breadcrumb" transform="translate(1876.217500, 753.321000)">
                <path d="M5.8525,6.819 L19.8025,6.857 L21.2025,5.338 L19.8125,3.815 L5.8625,3.777 L5.8525,6.819 Z M20.2425,8.858 L20.2425,8.858 L4.8425,8.816 C4.5825,8.815 4.3225,8.709 4.1425,8.521 C3.9525,8.332 3.8425,8.077 3.8525,7.813 L3.8625,2.771 C3.8625,2.219 4.3125,1.774 4.8625,1.774 L20.2625,1.816 C20.5425,1.817 20.8025,1.935 20.9925,2.143 L23.2925,4.669 C23.6425,5.052 23.6425,5.638 23.2925,6.019 L20.9825,8.534 C20.7925,8.741 20.5225,8.858 20.2425,8.858 L20.2425,8.858 Z" id="Fill-1840"></path>
                <path d="M3.7425,14.812 L17.7025,14.851 L17.7025,11.808 L3.7525,11.771 L2.3625,13.287 L3.7425,14.812 Z M18.6925,16.854 L18.6925,16.854 L3.3025,16.811 C3.0225,16.81 2.7525,16.692 2.5625,16.484 L0.2625,13.956 C-0.0875,13.574 -0.0875,12.988 0.2625,12.607 L2.5825,10.093 C2.7725,9.887 3.0325,9.77 3.3125,9.77 C3.3125,9.77 3.3125,9.77 3.3225,9.77 L18.7125,9.811 C18.9725,9.812 19.2325,9.917 19.4225,10.106 C19.6025,10.293 19.7125,10.548 19.7125,10.814 L19.6925,15.857 C19.6925,16.121 19.5925,16.376 19.4025,16.563 C19.2125,16.749 18.9625,16.854 18.6925,16.854 L18.6925,16.854 Z" id="Fill-1841"></path>
                <path d="M11.0725,23.688 L11.0725,23.688 C10.5225,23.687 10.0725,23.238 10.0725,22.685 L10.0925,15.894 C10.0925,15.343 10.5425,14.897 11.0925,14.897 C11.6525,14.898 12.0925,15.347 12.0925,15.9 L12.0725,22.691 C12.0725,23.242 11.6225,23.688 11.0725,23.688" id="Fill-1842"></path>
                <path d="M11.1325,3.059 L11.1325,3.059 C10.5825,3.058 10.1325,2.61 10.1325,2.057 L10.1325,0.998 C10.1325,0.447 10.5825,0 11.1325,0 C11.6925,0.001 12.1325,0.45 12.1325,1.002 L12.1325,2.061 C12.1325,2.613 11.6825,3.059 11.1325,3.059" id="Fill-1843"></path>
                <path d="M11.1125,11.184 C11.1125,11.184 11.1125,11.184 11.1025,11.184 C10.5525,11.182 10.1125,10.733 10.1125,10.18 L10.1125,8.516 C10.1125,7.965 10.5625,7.52 11.1125,7.52 C11.1125,7.52 11.1125,7.52 11.1225,7.52 C11.6725,7.522 12.1125,7.971 12.1125,8.524 L12.1125,10.188 C12.1125,10.739 11.6625,11.184 11.1125,11.184" id="Fill-1844"></path>
            </g>
        </g>
    </g>
</svg>