<?xml version="1.0" encoding="UTF-8"?>
<svg width="25px" height="25px" viewBox="0 0 25 25" version="1.1" xmlns="http://www.w3.org/2000/svg" xmlns:xlink="http://www.w3.org/1999/xlink">
    <!-- Generator: Sketch 60.1 (88133) - https://sketch.com -->
    <title>button</title>
    <desc>Created with Sketch.</desc>
    <g id="Page-1" stroke="none" stroke-width="1" fill="none" fill-rule="evenodd">
        <g id="CircleLineIcons-14" transform="translate(-589.000000, -753.000000)" fill="#000000">
            <g id="button" transform="translate(589.703000, 753.231000)">
                <path d="M7.431,17.439 C7.175,17.439 6.919,17.341 6.724,17.146 C6.333,16.755 6.333,16.123 6.724,15.732 L15.454,7.002 C15.845,6.612 16.478,6.612 16.868,7.002 C17.259,7.393 17.259,8.026 16.868,8.416 L8.138,17.146 C7.943,17.341 7.687,17.439 7.431,17.439" id="Fill-1498"></path>
                <path d="M16.051,13.476 C15.89,13.476 15.727,13.469 15.564,13.455 C15.014,13.405 14.608,12.918 14.657,12.369 C14.707,11.819 15.197,11.402 15.743,11.462 C16.738,11.559 17.705,11.205 18.402,10.508 L20.886,8.022 C22.198,6.711 22.198,4.577 20.888,3.264 L20.607,2.983 C19.294,1.672 17.161,1.672 15.851,2.983 L13.364,5.467 C12.667,6.165 12.318,7.135 12.407,8.126 C12.457,8.676 12.051,9.163 11.501,9.212 C10.968,9.271 10.465,8.856 10.415,8.306 C10.273,6.722 10.832,5.172 11.95,4.053 L14.437,1.569 C16.525,-0.523 19.927,-0.523 22.021,1.569 L22.302,1.85 C24.393,3.944 24.392,7.346 22.3,9.436 L19.817,11.923 C18.813,12.924 17.462,13.476 16.051,13.476" id="Fill-1499"></path>
                <path d="M5.646,23.868 C4.272,23.868 2.899,23.346 1.852,22.301 L1.568,22.014 C0.558,21.006 0,19.66 0,18.226 C0,16.793 0.558,15.447 1.571,14.435 L4.055,11.948 C5.171,10.832 6.713,10.268 8.307,10.414 C8.857,10.462 9.263,10.949 9.214,11.498 C9.164,12.048 8.695,12.466 8.129,12.406 C7.14,12.319 6.166,12.665 5.47,13.362 L2.986,15.849 C2.35,16.485 2,17.329 2,18.226 C2,19.124 2.35,19.968 2.985,20.604 L3.269,20.89 C4.578,22.195 6.711,22.198 8.023,20.885 L10.511,18.399 C11.206,17.703 11.554,16.734 11.464,15.742 C11.414,15.192 11.82,14.706 12.37,14.656 C12.908,14.604 13.407,15.011 13.456,15.562 C13.599,17.147 13.041,18.696 11.925,19.813 L9.437,22.299 C8.393,23.345 7.019,23.868 5.646,23.868" id="Fill-1500"></path>
            </g>
        </g>
    </g>
</svg>