<?xml version="1.0" encoding="UTF-8"?>
<svg width="23px" height="30px" viewBox="0 0 23 30" version="1.1" xmlns="http://www.w3.org/2000/svg" xmlns:xlink="http://www.w3.org/1999/xlink">
    <!-- Generator: Sketch 60.1 (88133) - https://sketch.com -->
    <title>career</title>
    <desc>Created with Sketch.</desc>
    <g id="Page-1" stroke="none" stroke-width="1" fill="none" fill-rule="evenodd">
        <g id="CircleLineIcons-14" transform="translate(-468.000000, -1245.000000)" fill="#000000">
            <g id="career" transform="translate(468.223695, 1245.880000)">
                <path d="M8.72630494,2 C7.18230494,2 5.92530494,3.51 5.92530494,5.38 C5.92530494,7.24 7.18230494,8.75 8.72630494,8.75 C10.2683049,8.75 11.5233049,7.24 11.5233049,5.38 C11.5233049,3.51 10.2683049,2 8.72630494,2 Z M8.72630494,10.75 C6.07930494,10.75 3.92530494,8.34 3.92530494,5.38 C3.92530494,2.41 6.07930494,0 8.72630494,0 C11.3713049,0 13.5233049,2.41 13.5233049,5.38 C13.5233049,8.34 11.3713049,10.75 8.72630494,10.75 L8.72630494,10.75 Z" id="Fill-930"></path>
                <path d="M16.0583049,17 C13.1863049,17 10.8493049,19.34 10.8493049,22.21 C10.8493049,25.08 13.1863049,27.42 16.0583049,27.42 C18.9293049,27.42 21.2653049,25.08 21.2653049,22.21 C21.2653049,19.34 18.9293049,17 16.0583049,17 Z M16.0583049,28.42 C12.6343049,28.42 9.84930494,25.63 9.84930494,22.21 C9.84930494,18.79 12.6343049,16 16.0583049,16 C19.4813049,16 22.2653049,18.79 22.2653049,22.21 C22.2653049,25.63 19.4813049,28.42 16.0583049,28.42 L16.0583049,28.42 Z" id="Fill-931"></path>
                <path d="M10.3533049,23.14 L1.32830494,23.14 C0.802304936,23.14 0.367304936,22.73 0.330304936,22.21 C0.220304936,20.62 0.111304936,19.04 0.00730493553,17.49 C-0.111695064,15.75 1.23830494,13.75 2.95430494,13.11 C6.62730494,11.8 10.6603049,11.8 14.3233049,13.11 C15.6283049,13.59 16.7243049,14.82 17.1283049,16.24 L15.2043049,16.78 C14.9763049,15.98 14.3343049,15.24 13.6403049,14.99 C10.4203049,13.84 6.86430494,13.84 3.63730494,14.99 C2.67230494,15.35 1.95030494,16.58 2.00430494,17.35 C2.08730494,18.6 2.17330494,19.87 2.26130494,21.14 L10.3533049,21.14 L10.3533049,23.14" id="Fill-932"></path>
                <path d="M16.0583049,25.97 C15.5053049,25.97 15.0583049,25.53 15.0583049,24.97 L15.0583049,19.45 C15.0583049,18.89 15.5053049,18.45 16.0583049,18.45 C16.6113049,18.45 17.0583049,18.89 17.0583049,19.45 L17.0583049,24.97 C17.0583049,25.53 16.6113049,25.97 16.0583049,25.97" id="Fill-933"></path>
                <path d="M18.8223049,23.21 L13.2953049,23.21 C12.7423049,23.21 12.2953049,22.76 12.2953049,22.21 C12.2953049,21.66 12.7423049,21.21 13.2953049,21.21 L18.8223049,21.21 C19.3753049,21.21 19.8223049,21.66 19.8223049,22.21 C19.8223049,22.76 19.3753049,23.21 18.8223049,23.21" id="Fill-934"></path>
            </g>
        </g>
    </g>
</svg>