<?xml version="1.0" encoding="UTF-8"?>
<svg width="25px" height="25px" viewBox="0 0 25 25" version="1.1" xmlns="http://www.w3.org/2000/svg" xmlns:xlink="http://www.w3.org/1999/xlink">
    <!-- Generator: Sketch 60.1 (88133) - https://sketch.com -->
    <title>chart</title>
    <desc>Created with Sketch.</desc>
    <g id="Page-1" stroke="none" stroke-width="1" fill="none" fill-rule="evenodd">
        <g id="CircleLineIcons-14" transform="translate(-467.000000, -1000.000000)" fill="#000000">
            <g id="chart" transform="translate(467.690000, 1000.880000)">
                <path d="M22.834,23.84 L1,23.84 C0.448,23.84 2.84217094e-14,23.39 2.84217094e-14,22.84 L2.84217094e-14,1 C2.84217094e-14,0.45 0.448,5.68434189e-14 1,5.68434189e-14 C1.553,5.68434189e-14 2,0.45 2,1 L2,21.84 L22.834,21.84 C23.387,21.84 23.834,22.29 23.834,22.84 C23.834,23.39 23.387,23.84 22.834,23.84" id="Fill-3124"></path>
                <path d="M6.975,14.95 C6.24,14.95 5.641,15.55 5.641,16.29 C5.641,17.02 6.24,17.62 6.975,17.62 C7.71,17.62 8.309,17.02 8.309,16.29 C8.309,15.55 7.71,14.95 6.975,14.95 Z M6.975,19.62 C5.137,19.62 3.641,18.12 3.641,16.29 C3.641,14.45 5.137,12.95 6.975,12.95 C8.813,12.95 10.309,14.45 10.309,16.29 C10.309,18.12 8.813,19.62 6.975,19.62 L6.975,19.62 Z" id="Fill-3125"></path>
                <path d="M19.807,12.62 C19.073,12.62 18.475,13.22 18.475,13.95 C18.475,14.69 19.073,15.29 19.807,15.29 C20.542,15.29 21.141,14.69 21.141,13.95 C21.141,13.22 20.542,12.62 19.807,12.62 Z M19.807,17.29 C17.97,17.29 16.475,15.79 16.475,13.95 C16.475,12.11 17.97,10.62 19.807,10.62 C21.645,10.62 23.141,12.11 23.141,13.95 C23.141,15.79 21.645,17.29 19.807,17.29 L19.807,17.29 Z" id="Fill-3126"></path>
                <path d="M12.307,5.12 C11.573,5.12 10.975,5.72 10.975,6.45 C10.975,7.19 11.573,7.79 12.307,7.79 C13.042,7.79 13.641,7.19 13.641,6.45 C13.641,5.72 13.042,5.12 12.307,5.12 Z M12.307,9.79 C10.47,9.79 8.975,8.29 8.975,6.45 C8.975,4.61 10.47,3.12 12.307,3.12 C14.145,3.12 15.641,4.61 15.641,6.45 C15.641,8.29 14.145,9.79 12.307,9.79 L12.307,9.79 Z" id="Fill-3127"></path>
                <path d="M8.24,14.79 C8.074,14.79 7.906,14.75 7.751,14.66 C7.27,14.39 7.098,13.78 7.369,13.3 L10.269,8.13 C10.539,7.65 11.15,7.48 11.63,7.75 C12.112,8.02 12.284,8.63 12.013,9.11 L9.113,14.28 C8.929,14.61 8.589,14.79 8.24,14.79" id="Fill-3128"></path>
                <path d="M18.309,13.12 C18.066,13.12 17.823,13.03 17.631,12.86 L13.296,8.86 C12.891,8.48 12.866,7.85 13.241,7.44 C13.614,7.04 14.249,7.01 14.653,7.39 L18.988,11.39 C19.393,11.76 19.418,12.39 19.043,12.8 C18.847,13.01 18.579,13.12 18.309,13.12" id="Fill-3129"></path>
            </g>
        </g>
    </g>
</svg>