<?xml version="1.0" encoding="UTF-8"?>
<svg width="22px" height="25px" viewBox="0 0 22 25" version="1.1" xmlns="http://www.w3.org/2000/svg" xmlns:xlink="http://www.w3.org/1999/xlink">
    <!-- Generator: Sketch 60.1 (88133) - https://sketch.com -->
    <title>contact</title>
    <desc>Created with Sketch.</desc>
    <g id="Page-1" stroke="none" stroke-width="1" fill="none" fill-rule="evenodd">
        <g id="CircleLineIcons-14" transform="translate(-162.000000, -1372.000000)" fill="#000000">
            <g id="contact" transform="translate(162.530000, 1372.340000)">
                <path d="M3.76,21.69 L19.014,21.69 L19.014,2 L3.76,2 L3.76,21.69 Z M20.014,23.69 L2.76,23.69 C2.207,23.69 1.76,23.24 1.76,22.69 L1.76,1 C1.76,0.45 2.207,5.68434189e-14 2.76,5.68434189e-14 L20.014,5.68434189e-14 C20.567,5.68434189e-14 21.014,0.45 21.014,1 L21.014,22.69 C21.014,23.24 20.567,23.69 20.014,23.69 L20.014,23.69 Z" id="Fill-673"></path>
                <path d="M4.522,6.05 L1,6.05 C0.448,6.05 0,5.6 0,5.05 C0,4.5 0.448,4.05 1,4.05 L4.522,4.05 C5.074,4.05 5.522,4.5 5.522,5.05 C5.522,5.6 5.074,6.05 4.522,6.05" id="Fill-674"></path>
                <path d="M4.522,10.54 L1,10.54 C0.448,10.54 0,10.09 0,9.54 C0,8.99 0.448,8.54 1,8.54 L4.522,8.54 C5.074,8.54 5.522,8.99 5.522,9.54 C5.522,10.09 5.074,10.54 4.522,10.54" id="Fill-675"></path>
                <path d="M4.522,15.03 L1,15.03 C0.448,15.03 0,14.58 0,14.03 C0,13.48 0.448,13.03 1,13.03 L4.522,13.03 C5.074,13.03 5.522,13.48 5.522,14.03 C5.522,14.58 5.074,15.03 4.522,15.03" id="Fill-676"></path>
                <path d="M4.522,19.52 L1,19.52 C0.448,19.52 0,19.07 0,18.52 C0,17.97 0.448,17.52 1,17.52 L4.522,17.52 C5.074,17.52 5.522,17.97 5.522,18.52 C5.522,19.07 5.074,19.52 4.522,19.52" id="Fill-677"></path>
                <path d="M12.033,6.7 C11.325,6.7 10.727,7.47 10.727,8.37 C10.727,9.26 11.325,10.02 12.033,10.02 C12.754,10.02 13.34,9.28 13.34,8.37 C13.34,7.45 12.754,6.7 12.033,6.7 Z M12.033,12.02 C10.21,12.02 8.727,10.38 8.727,8.37 C8.727,6.35 10.21,4.7 12.033,4.7 C13.857,4.7 15.34,6.35 15.34,8.37 C15.34,10.38 13.857,12.02 12.033,12.02 L12.033,12.02 Z" id="Fill-678"></path>
                <path d="M8.526,17.89 L15.54,17.89 L15.67,15.96 C15.692,15.66 15.369,15.08 14.933,14.92 C13.079,14.26 10.995,14.26 9.126,14.92 C8.698,15.08 8.372,15.67 8.393,15.96 L8.526,17.89 Z M16.475,19.89 L7.592,19.89 C7.067,19.89 6.631,19.49 6.594,18.96 L6.398,16.1 C6.313,14.86 7.23,13.49 8.442,13.04 C10.767,12.21 13.311,12.22 15.615,13.04 C16.837,13.49 17.753,14.86 17.665,16.1 L17.473,18.96 C17.438,19.48 17.001,19.89 16.475,19.89 L16.475,19.89 Z" id="Fill-679"></path>
            </g>
        </g>
    </g>
</svg>