<?xml version="1.0" encoding="UTF-8"?>
<svg width="24px" height="24px" viewBox="0 0 24 24" version="1.1" xmlns="http://www.w3.org/2000/svg" xmlns:xlink="http://www.w3.org/1999/xlink">
    <!-- Generator: Sketch 60.1 (88133) - https://sketch.com -->
    <title>content</title>
    <desc>Created with Sketch.</desc>
    <g id="Page-1" stroke="none" stroke-width="1" fill="none" fill-rule="evenodd">
        <g id="CircleLineIcons-14" transform="translate(-529.000000, -1186.000000)" fill="#000000">
            <g id="content" transform="translate(529.681000, 1186.900000)">
                <path d="M21.666,2 L1,2 C0.447,2 0,1.55 0,1 C0,0.45 0.447,0 1,0 L21.666,0 C22.218,0 22.666,0.45 22.666,1 C22.666,1.55 22.218,2 21.666,2" id="Fill-1242"></path>
                <path d="M17.082,7.25 L1,7.25 C0.447,7.25 -5.68434189e-14,6.8 -5.68434189e-14,6.25 C-5.68434189e-14,5.7 0.447,5.25 1,5.25 L17.082,5.25 C17.634,5.25 18.082,5.7 18.082,6.25 C18.082,6.8 17.634,7.25 17.082,7.25" id="Fill-1243"></path>
                <path d="M21.666,12.5 L1,12.5 C0.447,12.5 0,12.05 0,11.5 C0,10.95 0.447,10.5 1,10.5 L21.666,10.5 C22.218,10.5 22.666,10.95 22.666,11.5 C22.666,12.05 22.218,12.5 21.666,12.5" id="Fill-1244"></path>
                <path d="M18.582,17.75 L1,17.75 C0.447,17.75 -5.68434189e-14,17.3 -5.68434189e-14,16.75 C-5.68434189e-14,16.2 0.447,15.75 1,15.75 L18.582,15.75 C19.134,15.75 19.582,16.2 19.582,16.75 C19.582,17.3 19.134,17.75 18.582,17.75" id="Fill-1245"></path>
                <path d="M9.582,23 L1,23 C0.447,23 -5.68434189e-14,22.55 -5.68434189e-14,22 C-5.68434189e-14,21.45 0.447,21 1,21 L9.582,21 C10.134,21 10.582,21.45 10.582,22 C10.582,22.55 10.134,23 9.582,23" id="Fill-1246"></path>
            </g>
        </g>
    </g>
</svg>