<?xml version="1.0" encoding="UTF-8"?>
<svg width="18px" height="25px" viewBox="0 0 18 25" version="1.1" xmlns="http://www.w3.org/2000/svg" xmlns:xlink="http://www.w3.org/1999/xlink">
    <!-- Generator: Sketch 60.1 (88133) - https://sketch.com -->
    <title>countdown</title>
    <desc>Created with Sketch.</desc>
    <g id="Page-1" stroke="none" stroke-width="1" fill="none" fill-rule="evenodd">
        <g id="CircleLineIcons-14" transform="translate(-103.000000, -815.000000)" fill="#000000">
            <g id="countdown" transform="translate(103.528000, 815.370000)">
                <path d="M16.102,2 L1,2 C0.448,2 -7.10542736e-15,1.553 -7.10542736e-15,1 C-7.10542736e-15,0.447 0.448,0 1,0 L16.102,0 C16.655,0 17.102,0.447 17.102,1 C17.102,1.553 16.655,2 16.102,2" id="Fill-2037"></path>
                <path d="M16.102,23.668 L1,23.668 C0.448,23.668 -7.10542736e-15,23.221 -7.10542736e-15,22.668 C-7.10542736e-15,22.115 0.448,21.668 1,21.668 L16.102,21.668 C16.655,21.668 17.102,22.115 17.102,22.668 C17.102,23.221 16.655,23.668 16.102,23.668" id="Fill-2038"></path>
                <path d="M3.815,21.668 L13.287,21.668 L13.287,17.793 C13.287,15.871 12.132,14.153 10.344,13.417 C9.969,13.263 9.725,12.898 9.725,12.492 L9.725,11.176 C9.725,10.771 9.969,10.405 10.344,10.251 C12.132,9.515 13.287,7.796 13.287,5.874 L13.287,2 L3.815,2 L3.815,5.874 C3.815,7.797 4.971,9.515 6.76,10.251 C7.134,10.405 7.379,10.771 7.379,11.176 L7.379,12.492 C7.379,12.898 7.135,13.263 6.76,13.417 C4.971,14.154 3.815,15.872 3.815,17.793 L3.815,21.668 Z M14.287,23.668 L2.815,23.668 C2.262,23.668 1.815,23.221 1.815,22.668 L1.815,17.793 C1.815,15.287 3.194,13.026 5.379,11.859 L5.379,11.809 C3.194,10.643 1.815,8.381 1.815,5.874 L1.815,1 C1.815,0.447 2.262,0 2.815,0 L14.287,0 C14.84,0 15.287,0.447 15.287,1 L15.287,5.874 C15.287,8.381 13.91,10.643 11.725,11.809 L11.725,11.859 C13.91,13.026 15.287,15.287 15.287,17.793 L15.287,22.668 C15.287,23.221 14.84,23.668 14.287,23.668 L14.287,23.668 Z" id="Fill-2039"></path>
                <path d="M8.551,17.327 C8.275,17.327 8.051,17.104 8.051,16.827 L8.051,9.629 C8.051,9.353 8.275,9.129 8.551,9.129 C8.827,9.129 9.051,9.353 9.051,9.629 L9.051,16.827 C9.051,17.104 8.827,17.327 8.551,17.327" id="Fill-2040"></path>
                <path d="M4.844,21.172 C4.568,21.172 4.344,20.948 4.344,20.672 C4.344,20.396 4.568,20.172 4.844,20.172 C6.613,20.172 8.051,18.733 8.051,16.964 C8.051,16.688 8.275,16.464 8.551,16.464 C8.827,16.464 9.051,16.688 9.051,16.964 C9.051,19.284 7.163,21.172 4.844,21.172" id="Fill-2041"></path>
                <path d="M12.258,21.172 C9.939,21.172 8.051,19.284 8.051,16.964 C8.051,16.688 8.275,16.464 8.551,16.464 C8.827,16.464 9.051,16.688 9.051,16.964 C9.051,18.733 10.49,20.172 12.258,20.172 C12.535,20.172 12.758,20.396 12.758,20.672 C12.758,20.948 12.535,21.172 12.258,21.172" id="Fill-2042"></path>
                <path d="M5.632,6.665 C5.869,7.986 7.027,8.992 8.414,8.992 L8.686,8.992 C10.075,8.992 11.233,7.986 11.47,6.665 L5.632,6.665 Z M8.686,9.992 L8.414,9.992 C6.305,9.992 4.588,8.276 4.588,6.165 C4.588,5.889 4.812,5.665 5.088,5.665 L12.014,5.665 C12.29,5.665 12.514,5.889 12.514,6.165 C12.514,8.276 10.796,9.992 8.686,9.992 L8.686,9.992 Z" id="Fill-2043"></path>
            </g>
        </g>
    </g>
</svg>