<?xml version="1.0" encoding="UTF-8"?>
<svg width="25px" height="24px" viewBox="0 0 25 24" version="1.1" xmlns="http://www.w3.org/2000/svg" xmlns:xlink="http://www.w3.org/1999/xlink">
    <!-- Generator: Sketch 60.1 (88133) - https://sketch.com -->
    <title>counter</title>
    <desc>Created with Sketch.</desc>
    <g id="Page-1" stroke="none" stroke-width="1" fill="none" fill-rule="evenodd">
        <g id="CircleLineIcons-14" transform="translate(-1631.000000, -815.000000)" fill="#000000">
            <g id="counter" transform="translate(1631.517500, 815.428000)">
                <path d="M11.7725,2 C9.1625,2 6.7025,3.016 4.8625,4.862 C3.0125,6.708 1.9925,9.163 1.9925,11.775 C1.9925,14.387 3.0125,16.843 4.8525,18.69 C6.7025,20.535 9.1525,21.551 11.7725,21.551 C14.3825,21.551 16.8325,20.535 18.6825,18.688 C20.5325,16.843 21.5425,14.387 21.5425,11.776 C21.5425,9.164 20.5325,6.709 18.6825,4.862 C16.8325,3.016 14.3825,2 11.7725,2 Z M11.7725,23.551 C8.6225,23.551 5.6625,22.327 3.4425,20.104 C-1.1475,15.51 -1.1475,8.039 3.4425,3.448 C5.6725,1.224 8.6225,0 11.7725,0 C14.9125,0 17.8725,1.224 20.0925,3.448 C22.3225,5.673 23.5425,8.63 23.5425,11.776 C23.5425,14.922 22.3225,17.879 20.1025,20.102 C17.8725,22.327 14.9125,23.551 11.7725,23.551 L11.7725,23.551 Z" id="Fill-3084"></path>
                <path d="M6.2725,17.774 C6.1425,17.774 6.0125,17.725 5.9125,17.628 C2.6925,14.402 2.6925,9.151 5.9225,5.923 C7.4825,4.36 9.5625,3.5 11.7725,3.5 C13.9825,3.5 16.0625,4.36 17.6225,5.923 C20.8525,9.148 20.8525,14.398 17.6225,17.626 C17.4325,17.821 17.1125,17.821 16.9125,17.626 C16.7225,17.43 16.7225,17.114 16.9125,16.919 C19.7525,14.082 19.7525,9.466 16.9125,6.63 C15.5425,5.257 13.7125,4.5 11.7725,4.5 C9.8225,4.5 8.0025,5.257 6.6325,6.63 C3.7925,9.468 3.7925,14.085 6.6225,16.921 C6.8225,17.116 6.8225,17.432 6.6225,17.628 C6.5225,17.725 6.4025,17.774 6.2725,17.774" id="Fill-3085"></path>
                <path d="M6.2725,18.274 C6.0125,18.274 5.7625,18.176 5.5625,17.981 C2.1425,14.56 2.1425,8.992 5.5625,5.569 C5.9625,5.178 6.5925,5.178 6.9825,5.569 C7.3725,5.96 7.3725,6.593 6.9825,6.983 C4.3425,9.627 4.3325,13.926 6.9825,16.567 C7.3725,16.958 7.3725,17.591 6.9825,17.981 C6.7825,18.176 6.5225,18.274 6.2725,18.274" id="Fill-3086"></path>
                <path d="M11.7725,16.643 C10.6925,16.643 9.8125,17.52 9.8125,18.602 C9.8125,19.684 10.6925,20.559 11.7725,20.559 C12.8525,20.559 13.7325,19.684 13.7325,18.602 C13.7325,17.52 12.8525,16.643 11.7725,16.643" id="Fill-3087"></path>
                <path d="M11.8425,19.352 C11.4625,19.352 11.1025,19.133 10.9325,18.76 L7.1825,10.385 C6.9525,9.882 7.1825,9.291 7.6825,9.064 C8.1925,8.84 8.7825,9.065 9.0125,9.569 L12.7625,17.944 C12.9825,18.448 12.7625,19.039 12.2525,19.265 C12.1225,19.324 11.9825,19.352 11.8425,19.352" id="Fill-3088"></path>
            </g>
        </g>
    </g>
</svg>