<?xml version="1.0" encoding="UTF-8"?>
<svg width="26px" height="25px" viewBox="0 0 26 25" version="1.1" xmlns="http://www.w3.org/2000/svg" xmlns:xlink="http://www.w3.org/1999/xlink">
    <!-- Generator: Sketch 60.1 (88133) - https://sketch.com -->
    <title>divider</title>
    <desc>Created with Sketch.</desc>
    <g id="Page-1" stroke="none" stroke-width="1" fill="none" fill-rule="evenodd">
        <g id="CircleLineIcons-14" transform="translate(-1447.000000, -1496.000000)" fill="#000000">
            <g id="divider" transform="translate(1446.997262, 1496.062500)">
                <path d="M3.0427381,7.4775 L12.6427381,12.8575 L22.1627381,7.5275 L12.5627381,2.1475 L3.0427381,7.4775 Z M12.6427381,14.9975 C12.4727381,14.9975 12.3027381,14.9575 12.1527381,14.8775 L0.512738104,8.3475 C0.192738104,8.1775 0.00273810389,7.8375 0.00273810389,7.4775 C0.00273810389,7.1175 0.192738104,6.7875 0.512738104,6.6075 L12.0727381,0.1275 C12.3727381,-0.0425 12.7527381,-0.0425 13.0527381,0.1275 L24.6927381,6.6475 C25.0127381,6.8275 25.2027381,7.1575 25.2027381,7.5275 C25.2027381,7.8875 25.0127381,8.2175 24.6927381,8.3975 L13.1327381,14.8775 C12.9827381,14.9575 12.8127381,14.9975 12.6427381,14.9975 L12.6427381,14.9975 Z" id="Fill-3134"></path>
                <path d="M12.6427381,19.4975 C12.4727381,19.4975 12.3027381,19.4575 12.1527381,19.3775 L0.512738104,12.8475 C0.0327381039,12.5775 -0.147261896,11.9675 0.132738104,11.4875 C0.392738104,11.0075 1.0027381,10.8375 1.4927381,11.1075 L12.6427381,17.3575 L23.7227381,11.1475 C24.2027381,10.8775 24.8127381,11.0475 25.0827381,11.5375 C25.3527381,12.0175 25.1727381,12.6275 24.6927381,12.8975 L13.1327381,19.3775 C12.9827381,19.4575 12.8127381,19.4975 12.6427381,19.4975" id="Fill-3135"></path>
                <path d="M12.6427381,23.9975 C12.4727381,23.9975 12.3027381,23.9575 12.1527381,23.8775 L0.512738104,17.3475 C0.0327381039,17.0775 -0.147261896,16.4675 0.132738104,15.9875 C0.392738104,15.5075 1.0027381,15.3375 1.4927381,15.6075 L12.6427381,21.8575 L23.7227381,15.6475 C24.2027381,15.3775 24.8127381,15.5475 25.0827381,16.0375 C25.3527381,16.5175 25.1727381,17.1275 24.6927381,17.3975 L13.1327381,23.8775 C12.9827381,23.9575 12.8127381,23.9975 12.6427381,23.9975" id="Fill-3136"></path>
            </g>
        </g>
    </g>
</svg>