<?xml version="1.0" encoding="UTF-8"?>
<svg width="23px" height="20px" viewBox="0 0 23 20" version="1.1" xmlns="http://www.w3.org/2000/svg" xmlns:xlink="http://www.w3.org/1999/xlink">
    <!-- Generator: Sketch 60.1 (88133) - https://sketch.com -->
    <title>faq</title>
    <desc>Created with Sketch.</desc>
    <g id="Page-1" stroke="none" stroke-width="1" fill="none" fill-rule="evenodd">
        <g id="CircleLineIcons-14" transform="translate(-1019.000000, -1374.000000)" fill="#000000">
            <g id="faq" transform="translate(1019.350000, 1374.680000)">
                <path d="M2,2 L2,13.25 L5.25,13.25 C5.8,13.25 6.25,13.7 6.25,14.25 L6.25,15.94 L9.37,13.47 C9.55,13.33 9.77,13.25 9.99,13.25 L20.25,13.25 L20.25,2 L2,2 Z M5.25,19 C5.1,19 4.95,18.97 4.81,18.9 C4.47,18.74 4.25,18.39 4.25,18 L4.25,15.25 L2,15.25 C0.89,15.25 -5.68434189e-14,14.36 -5.68434189e-14,13.25 L-5.68434189e-14,2 C-5.68434189e-14,0.9 0.89,0 2,0 L20.25,0 C21.35,0 22.25,0.9 22.25,2 L22.25,13.25 C22.25,14.36 21.35,15.25 20.25,15.25 L10.34,15.25 L5.87,18.79 C5.69,18.93 5.47,19 5.25,19 L5.25,19 Z" id="Fill-2260"></path>
                <path d="M7.17,5.33 L4.73,5.33 L4.73,6.9 L6.77,6.9 C6.96,6.9 7.1,6.94 7.19,7.02 C7.28,7.11 7.33,7.22 7.33,7.36 C7.33,7.5 7.28,7.61 7.19,7.7 C7.09,7.78 6.95,7.82 6.77,7.82 L4.73,7.82 L4.73,9.83 C4.73,10.09 4.68,10.28 4.56,10.4 C4.44,10.52 4.3,10.59 4.12,10.59 C3.93,10.59 3.78,10.52 3.67,10.4 C3.55,10.27 3.5,10.09 3.5,9.83 L3.5,5.14 C3.5,4.96 3.52,4.82 3.58,4.7 C3.63,4.59 3.71,4.51 3.82,4.46 C3.94,4.41 4.08,4.38 4.25,4.38 L7.17,4.38 C7.36,4.38 7.51,4.43 7.61,4.51 C7.7,4.6 7.75,4.71 7.75,4.86 C7.75,5 7.7,5.12 7.61,5.2 C7.51,5.29 7.36,5.33 7.17,5.33" id="Fill-2261"></path>
                <path d="M9.06,8.1 L10.88,8.1 L9.96,5.58 L9.06,8.1 Z M11.51,9.79 L11.21,9.03 L8.73,9.03 L8.44,9.81 C8.33,10.11 8.23,10.32 8.15,10.43 C8.07,10.53 7.94,10.59 7.76,10.59 C7.6,10.59 7.46,10.53 7.35,10.42 C7.23,10.3 7.17,10.17 7.17,10.03 C7.17,9.95 7.18,9.86 7.21,9.77 C7.24,9.68 7.28,9.56 7.35,9.4 L8.91,5.44 C8.95,5.32 9,5.19 9.07,5.03 C9.13,4.87 9.19,4.74 9.27,4.63 C9.34,4.53 9.43,4.44 9.54,4.37 C9.66,4.31 9.8,4.28 9.97,4.28 C10.14,4.28 10.29,4.31 10.4,4.37 C10.52,4.44 10.61,4.52 10.68,4.63 C10.75,4.73 10.81,4.84 10.86,4.96 C10.91,5.08 10.97,5.23 11.04,5.43 L12.64,9.37 C12.76,9.67 12.83,9.88 12.83,10.02 C12.83,10.16 12.77,10.29 12.65,10.41 C12.53,10.53 12.39,10.59 12.22,10.59 C12.12,10.59 12.04,10.57 11.97,10.53 C11.9,10.5 11.85,10.45 11.8,10.39 C11.75,10.33 11.7,10.24 11.65,10.12 C11.59,9.99 11.54,9.89 11.51,9.79 L11.51,9.79 Z" id="Fill-2262"></path>
                <path d="M17.13,9.05 C17.3,8.85 17.43,8.62 17.51,8.35 C17.59,8.08 17.63,7.77 17.63,7.41 C17.63,6.97 17.56,6.58 17.42,6.25 C17.27,5.93 17.07,5.68 16.8,5.51 C16.53,5.34 16.23,5.26 15.88,5.26 C15.63,5.26 15.4,5.31 15.19,5.4 C14.98,5.49 14.8,5.63 14.65,5.8 C14.5,5.98 14.38,6.21 14.29,6.49 C14.21,6.76 14.16,7.07 14.16,7.41 C14.16,8.12 14.33,8.66 14.65,9.04 C14.98,9.41 15.4,9.6 15.9,9.6 C16.1,9.6 16.31,9.56 16.53,9.48 C16.4,9.38 16.23,9.28 16.04,9.18 C15.84,9.09 15.71,9.01 15.64,8.96 C15.57,8.91 15.53,8.83 15.53,8.73 C15.53,8.65 15.56,8.58 15.63,8.51 C15.7,8.45 15.78,8.42 15.86,8.42 C16.11,8.42 16.54,8.63 17.13,9.05 Z M18.1,9.72 C18.28,9.85 18.48,9.97 18.69,10.08 C18.91,10.2 19.05,10.29 19.12,10.36 C19.19,10.42 19.22,10.52 19.22,10.64 C19.22,10.73 19.18,10.82 19.1,10.91 C19.02,11 18.92,11.04 18.8,11.04 C18.71,11.04 18.59,11.01 18.46,10.95 C18.32,10.89 18.16,10.8 17.98,10.69 C17.8,10.57 17.6,10.43 17.38,10.28 C16.98,10.48 16.49,10.59 15.9,10.59 C15.43,10.59 15,10.51 14.63,10.36 C14.25,10.21 13.94,9.99 13.68,9.71 C13.43,9.42 13.23,9.08 13.11,8.69 C12.98,8.3 12.91,7.88 12.91,7.41 C12.91,6.95 12.98,6.52 13.11,6.12 C13.25,5.73 13.44,5.4 13.7,5.13 C13.95,4.85 14.26,4.64 14.63,4.5 C15,4.35 15.41,4.28 15.88,4.28 C16.51,4.28 17.05,4.41 17.51,4.66 C17.96,4.92 18.3,5.28 18.54,5.76 C18.77,6.23 18.89,6.78 18.89,7.42 C18.89,8.39 18.62,9.16 18.1,9.72 L18.1,9.72 Z" id="Fill-2263"></path>
            </g>
        </g>
    </g>
</svg>