<?xml version="1.0" encoding="UTF-8"?>
<svg width="24px" height="24px" viewBox="0 0 24 24" version="1.1" xmlns="http://www.w3.org/2000/svg" xmlns:xlink="http://www.w3.org/1999/xlink">
    <!-- Generator: Sketch 60.1 (88133) - https://sketch.com -->
    <title>feature</title>
    <desc>Created with Sketch.</desc>
    <g id="Page-1" stroke="none" stroke-width="1" fill="none" fill-rule="evenodd">
        <g id="CircleLineIcons-14" transform="translate(-100.000000, -1372.000000)" fill="#000000">
            <g id="feature" transform="translate(100.259000, 1372.360000)">
                <path d="M17.686,7.02 L19.216,7.02 C19.368,7.02 19.484,7.05 19.564,7.12 C19.644,7.18 19.684,7.26 19.684,7.37 C19.684,7.47 19.652,7.55 19.59,7.61 C19.525,7.68 19.429,7.71 19.301,7.71 L17.144,7.71 C16.998,7.71 16.884,7.67 16.802,7.59 C16.72,7.51 16.679,7.42 16.679,7.31 C16.679,7.24 16.705,7.14 16.758,7.03 C16.81,6.91 16.868,6.82 16.93,6.75 C17.19,6.48 17.425,6.25 17.634,6.06 C17.843,5.87 17.992,5.74 18.082,5.68 C18.242,5.57 18.375,5.45 18.482,5.34 C18.588,5.22 18.67,5.11 18.724,4.99 C18.781,4.87 18.808,4.75 18.808,4.63 C18.808,4.51 18.778,4.4 18.719,4.3 C18.659,4.2 18.578,4.12 18.476,4.07 C18.373,4.01 18.262,3.99 18.14,3.99 C17.885,3.99 17.683,4.1 17.537,4.32 C17.517,4.35 17.484,4.43 17.439,4.56 C17.392,4.69 17.341,4.8 17.283,4.87 C17.225,4.94 17.141,4.97 17.03,4.97 C16.932,4.97 16.851,4.94 16.787,4.87 C16.722,4.81 16.69,4.72 16.69,4.61 C16.69,4.48 16.72,4.34 16.781,4.19 C16.842,4.04 16.931,3.91 17.053,3.79 C17.172,3.67 17.324,3.57 17.51,3.5 C17.693,3.43 17.91,3.39 18.158,3.39 C18.457,3.39 18.712,3.44 18.923,3.53 C19.059,3.6 19.179,3.68 19.283,3.79 C19.387,3.9 19.467,4.03 19.525,4.17 C19.582,4.31 19.611,4.46 19.611,4.62 C19.611,4.86 19.551,5.08 19.431,5.28 C19.31,5.48 19.188,5.63 19.063,5.74 C18.938,5.86 18.728,6.03 18.435,6.27 C18.14,6.51 17.939,6.7 17.83,6.83 C17.783,6.88 17.735,6.95 17.686,7.02" id="Fill-665"></path>
                <path d="M5.541,7.31 L5.541,4.65 C5.045,5.03 4.711,5.22 4.539,5.22 C4.457,5.22 4.384,5.18 4.32,5.12 C4.257,5.05 4.225,4.98 4.225,4.89 C4.225,4.79 4.257,4.72 4.319,4.67 C4.382,4.63 4.492,4.56 4.65,4.49 C4.887,4.38 5.075,4.26 5.217,4.14 C5.358,4.02 5.484,3.88 5.594,3.73 C5.703,3.57 5.774,3.48 5.807,3.44 C5.841,3.41 5.903,3.39 5.995,3.39 C6.098,3.39 6.181,3.43 6.244,3.51 C6.306,3.59 6.338,3.7 6.338,3.84 L6.338,7.2 C6.338,7.59 6.204,7.79 5.936,7.79 C5.817,7.79 5.721,7.75 5.649,7.67 C5.577,7.59 5.541,7.47 5.541,7.31" id="Fill-666"></path>
                <path d="M17.188,18.64 L18.448,18.64 L18.448,16.94 L17.188,18.64 Z M18.448,19.84 L18.448,19.3 L16.977,19.3 C16.792,19.3 16.652,19.25 16.56,19.17 C16.467,19.09 16.421,18.97 16.421,18.83 C16.421,18.79 16.428,18.75 16.441,18.72 C16.455,18.68 16.475,18.64 16.503,18.59 C16.53,18.55 16.558,18.51 16.588,18.47 C16.617,18.43 16.653,18.39 16.696,18.33 L18.249,16.25 C18.35,16.12 18.433,16.02 18.5,15.96 C18.564,15.89 18.643,15.86 18.735,15.86 C19.032,15.86 19.18,16.03 19.18,16.37 L19.18,18.64 L19.306,18.64 C19.457,18.64 19.578,18.66 19.668,18.7 C19.76,18.74 19.804,18.83 19.804,18.97 C19.804,19.08 19.767,19.17 19.693,19.22 C19.619,19.27 19.508,19.3 19.359,19.3 L19.18,19.3 L19.18,19.84 C19.18,19.99 19.147,20.1 19.081,20.18 C19.014,20.25 18.926,20.29 18.814,20.29 C18.705,20.29 18.617,20.25 18.549,20.17 C18.482,20.1 18.448,19.99 18.448,19.84 L18.448,19.84 Z" id="Fill-667"></path>
                <path d="M5.491,17.62 C5.671,17.62 5.825,17.57 5.955,17.46 C6.085,17.36 6.15,17.21 6.15,17.01 C6.15,16.86 6.098,16.73 5.995,16.62 C5.891,16.51 5.752,16.46 5.576,16.46 C5.457,16.46 5.358,16.47 5.281,16.51 C5.204,16.54 5.143,16.58 5.098,16.64 C5.054,16.69 5.011,16.76 4.97,16.85 C4.93,16.94 4.894,17.02 4.861,17.09 C4.842,17.13 4.806,17.17 4.756,17.19 C4.705,17.21 4.646,17.22 4.58,17.22 C4.502,17.22 4.429,17.19 4.365,17.13 C4.299,17.07 4.266,16.98 4.266,16.88 C4.266,16.77 4.297,16.67 4.359,16.56 C4.42,16.44 4.51,16.34 4.629,16.23 C4.746,16.13 4.893,16.05 5.069,15.99 C5.245,15.93 5.441,15.9 5.658,15.9 C5.847,15.9 6.02,15.92 6.177,15.97 C6.333,16.03 6.469,16.1 6.584,16.2 C6.699,16.3 6.786,16.41 6.845,16.54 C6.903,16.67 6.932,16.81 6.932,16.96 C6.932,17.15 6.89,17.32 6.804,17.46 C6.72,17.6 6.598,17.73 6.44,17.87 C6.593,17.95 6.72,18.04 6.826,18.15 C6.929,18.25 7.009,18.37 7.061,18.5 C7.114,18.63 7.14,18.76 7.14,18.91 C7.14,19.09 7.104,19.26 7.033,19.43 C6.962,19.59 6.857,19.74 6.719,19.87 C6.58,20 6.416,20.1 6.224,20.18 C6.035,20.25 5.824,20.29 5.594,20.29 C5.359,20.29 5.149,20.24 4.964,20.16 C4.778,20.08 4.625,19.97 4.506,19.85 C4.385,19.72 4.295,19.59 4.232,19.45 C4.172,19.32 4.14,19.21 4.14,19.12 C4.14,19.01 4.178,18.92 4.25,18.85 C4.324,18.78 4.415,18.74 4.524,18.74 C4.579,18.74 4.632,18.76 4.682,18.79 C4.733,18.82 4.766,18.86 4.782,18.91 C4.884,19.18 4.992,19.38 5.109,19.51 C5.224,19.64 5.388,19.71 5.599,19.71 C5.72,19.71 5.837,19.68 5.949,19.62 C6.061,19.56 6.154,19.47 6.228,19.35 C6.301,19.24 6.338,19.1 6.338,18.95 C6.338,18.72 6.275,18.54 6.15,18.41 C6.025,18.28 5.851,18.22 5.629,18.22 C5.59,18.22 5.529,18.22 5.447,18.23 C5.365,18.23 5.312,18.24 5.289,18.24 C5.181,18.24 5.098,18.21 5.04,18.16 C4.981,18.1 4.952,18.03 4.952,17.93 C4.952,17.84 4.987,17.77 5.057,17.71 C5.128,17.65 5.232,17.62 5.371,17.62 L5.491,17.62" id="Fill-668"></path>
                <path d="M2,9.14 L9.133,9.14 L9.133,2 L2,2 L2,9.14 Z M10.133,11.14 L1,11.14 C0.447,11.14 -7.10542736e-15,10.69 -7.10542736e-15,10.14 L-7.10542736e-15,1 C-7.10542736e-15,0.45 0.447,-5.68434189e-14 1,-5.68434189e-14 L10.133,-5.68434189e-14 C10.685,-5.68434189e-14 11.133,0.45 11.133,1 L11.133,10.14 C11.133,10.69 10.685,11.14 10.133,11.14 L10.133,11.14 Z" id="Fill-669"></path>
                <path d="M14.504,9.14 L21.638,9.14 L21.638,2 L14.504,2 L14.504,9.14 Z M22.638,11.14 L13.504,11.14 C12.951,11.14 12.504,10.69 12.504,10.14 L12.504,1 C12.504,0.45 12.951,-5.68434189e-14 13.504,-5.68434189e-14 L22.638,-5.68434189e-14 C23.191,-5.68434189e-14 23.638,0.45 23.638,1 L23.638,10.14 C23.638,10.69 23.191,11.14 22.638,11.14 L22.638,11.14 Z" id="Fill-670"></path>
                <path d="M2,21.64 L9.133,21.64 L9.133,14.51 L2,14.51 L2,21.64 Z M10.133,23.64 L1,23.64 C0.447,23.64 -7.10542736e-15,23.2 -7.10542736e-15,22.64 L-7.10542736e-15,13.51 C-7.10542736e-15,12.96 0.447,12.51 1,12.51 L10.133,12.51 C10.685,12.51 11.133,12.96 11.133,13.51 L11.133,22.64 C11.133,23.2 10.685,23.64 10.133,23.64 L10.133,23.64 Z" id="Fill-671"></path>
                <path d="M14.504,21.64 L21.638,21.64 L21.638,14.51 L14.504,14.51 L14.504,21.64 Z M22.638,23.64 L13.504,23.64 C12.951,23.64 12.504,23.2 12.504,22.64 L12.504,13.51 C12.504,12.96 12.951,12.51 13.504,12.51 L22.638,12.51 C23.191,12.51 23.638,12.96 23.638,13.51 L23.638,22.64 C23.638,23.2 23.191,23.64 22.638,23.64 L22.638,23.64 Z" id="Fill-672"></path>
            </g>
        </g>
    </g>
</svg>