<?xml version="1.0" encoding="UTF-8"?>
<svg width="24px" height="27px" viewBox="0 0 24 27" version="1.1" xmlns="http://www.w3.org/2000/svg" xmlns:xlink="http://www.w3.org/1999/xlink">
    <!-- Generator: Sketch 60.1 (88133) - https://sketch.com -->
    <title>form</title>
    <desc>Created with Sketch.</desc>
    <g id="Page-1" stroke="none" stroke-width="1" fill="none" fill-rule="evenodd">
        <g id="CircleLineIcons-14" transform="translate(-468.000000, -1309.000000)" fill="#000000">
            <g id="form" transform="translate(468.167000, 1309.626078)">
                <path d="M8.407,4.08392216 C8.087,4.08392216 7.772,3.92392216 7.579,3.64392216 C7.269,3.18392216 7.388,2.56392216 7.845,2.25392216 L10.909,0.173922158 C11.262,-0.066077842 11.729,-0.056077842 12.071,0.193922158 L14.782,2.23392216 C15.224,2.56392216 15.312,3.19392216 14.981,3.63392216 C14.65,4.07392216 14.024,4.16392216 13.581,3.83392216 L11.441,2.22392216 L8.968,3.90392216 C8.796,4.02392216 8.601,4.08392216 8.407,4.08392216" id="Fill-709"></path>
                <path d="M20.521,25.5139222 L2.357,25.5139222 C1.058,25.5139222 -2.84217094e-14,24.4539222 -2.84217094e-14,23.1539222 L-2.84217094e-14,9.91392216 C-2.84217094e-14,9.62392216 0.129,9.34392216 0.352,9.15392216 L2.234,7.55392216 C2.654,7.19392216 3.285,7.24392216 3.645,7.66392216 C4.002,8.08392216 3.951,8.71392216 3.531,9.07392216 L2,10.3739222 L2,23.1539222 C2,23.3539222 2.16,23.5139222 2.357,23.5139222 L20.521,23.5139222 C20.719,23.5139222 20.879,23.3539222 20.879,23.1539222 L20.879,10.3839222 L19.354,9.11392216 C18.93,8.76392216 18.872,8.12392216 19.226,7.70392216 C19.58,7.28392216 20.21,7.22392216 20.634,7.57392216 L22.519,9.14392216 C22.747,9.33392216 22.879,9.61392216 22.879,9.91392216 L22.879,23.1539222 C22.879,24.4539222 21.821,25.5139222 20.521,25.5139222" id="Fill-710"></path>
                <path d="M1.73,23.7339222 C1.89,23.9139222 2.116,24.0139222 2.357,24.0139222 L20.521,24.0139222 C20.763,24.0139222 20.989,23.9139222 21.148,23.7339222 L11.439,15.0739222 L1.73,23.7339222 Z M20.521,25.0139222 L2.357,25.0139222 C1.592,25.0139222 0.896,24.5339222 0.624,23.8139222 C0.551,23.6239222 0.604,23.4039222 0.759,23.2639222 L11.106,14.0339222 C11.296,13.8639222 11.583,13.8639222 11.772,14.0339222 L22.12,23.2639222 C22.274,23.4039222 22.328,23.6239222 22.255,23.8139222 C21.983,24.5339222 21.287,25.0139222 20.521,25.0139222 L20.521,25.0139222 Z" id="Fill-711"></path>
                <path d="M14.625,17.6839222 C14.487,17.6839222 14.351,17.6239222 14.252,17.5139222 C14.068,17.3039222 14.086,16.9939222 14.292,16.8039222 L21.454,10.4239222 C21.661,10.2339222 21.977,10.2539222 22.16,10.4639222 C22.344,10.6639222 22.326,10.9839222 22.12,11.1639222 L14.958,17.5539222 C14.862,17.6339222 14.743,17.6839222 14.625,17.6839222" id="Fill-712"></path>
                <path d="M8.307,17.7339222 C8.188,17.7339222 8.069,17.6839222 7.974,17.6039222 L0.759,11.1639222 C0.553,10.9839222 0.535,10.6639222 0.719,10.4639222 C0.901,10.2539222 1.217,10.2339222 1.425,10.4239222 L8.64,16.8539222 C8.846,17.0439222 8.863,17.3539222 8.68,17.5639222 C8.581,17.6739222 8.444,17.7339222 8.307,17.7339222" id="Fill-713"></path>
                <path d="M19.502,13.3039222 C19.226,13.3039222 19.002,13.0739222 19.002,12.8039222 L19.002,4.13392216 L3.877,4.13392216 L3.877,12.8039222 C3.877,13.0739222 3.653,13.3039222 3.377,13.3039222 C3.101,13.3039222 2.877,13.0739222 2.877,12.8039222 L2.877,3.63392216 C2.877,3.35392216 3.101,3.13392216 3.377,3.13392216 L19.502,3.13392216 C19.778,3.13392216 20.002,3.35392216 20.002,3.63392216 L20.002,12.8039222 C20.002,13.0739222 19.778,13.3039222 19.502,13.3039222" id="Fill-714"></path>
                <polygon id="Fill-715" points="5.816 6.59392216 16.512 6.59392216 16.512 5.59392216 5.816 5.59392216"></polygon>
                <polygon id="Fill-716" points="5.816 8.42392216 16.512 8.42392216 16.512 7.42392216 5.816 7.42392216"></polygon>
                <polygon id="Fill-717" points="5.816 10.2439222 16.512 10.2439222 16.512 9.24392216 5.816 9.24392216"></polygon>
                <polygon id="Fill-718" points="5.816 12.0739222 16.512 12.0739222 16.512 11.0739222 5.816 11.0739222"></polygon>
                <polygon id="Fill-719" points="5.816 13.8939222 16.512 13.8939222 16.512 12.8939222 5.816 12.8939222"></polygon>
            </g>
        </g>
    </g>
</svg>