<?xml version="1.0" encoding="UTF-8"?>
<svg width="25px" height="25px" viewBox="0 0 25 25" version="1.1" xmlns="http://www.w3.org/2000/svg" xmlns:xlink="http://www.w3.org/1999/xlink">
    <!-- Generator: Sketch 60.1 (88133) - https://sketch.com -->
    <title>gallery</title>
    <desc>Created with Sketch.</desc>
    <g id="Page-1" stroke="none" stroke-width="1" fill="none" fill-rule="evenodd">
        <g id="CircleLineIcons-14" transform="translate(-957.000000, -1186.000000)" fill="#000000">
            <g id="gallery" transform="translate(957.614000, 1186.700000)">
                <path d="M2,9.04 L9.033,9.04 L9.033,2 L2,2 L2,9.04 Z M10.033,11.04 L1,11.04 C0.448,11.04 -5.68434189e-14,10.59 -5.68434189e-14,10.04 L-5.68434189e-14,1 C-5.68434189e-14,0.45 0.448,-5.68434189e-14 1,-5.68434189e-14 L10.033,-5.68434189e-14 C10.586,-5.68434189e-14 11.033,0.45 11.033,1 L11.033,10.04 C11.033,10.59 10.586,11.04 10.033,11.04 L10.033,11.04 Z" id="Fill-1105"></path>
                <path d="M14.367,9.04 L21.401,9.04 L21.401,2 L14.367,2 L14.367,9.04 Z M22.401,11.04 L13.367,11.04 C12.815,11.04 12.367,10.59 12.367,10.04 L12.367,1 C12.367,0.45 12.815,-5.68434189e-14 13.367,-5.68434189e-14 L22.401,-5.68434189e-14 C22.953,-5.68434189e-14 23.401,0.45 23.401,1 L23.401,10.04 C23.401,10.59 22.953,11.04 22.401,11.04 L22.401,11.04 Z" id="Fill-1106"></path>
                <path d="M2,21.4 L9.033,21.4 L9.033,14.37 L2,14.37 L2,21.4 Z M10.033,23.4 L1,23.4 C0.448,23.4 -5.68434189e-14,22.95 -5.68434189e-14,22.4 L-5.68434189e-14,13.37 C-5.68434189e-14,12.82 0.448,12.37 1,12.37 L10.033,12.37 C10.586,12.37 11.033,12.82 11.033,13.37 L11.033,22.4 C11.033,22.95 10.586,23.4 10.033,23.4 L10.033,23.4 Z" id="Fill-1107"></path>
                <path d="M14.367,21.4 L21.401,21.4 L21.401,14.37 L14.367,14.37 L14.367,21.4 Z M22.401,23.4 L13.367,23.4 C12.815,23.4 12.367,22.95 12.367,22.4 L12.367,13.37 C12.367,12.82 12.815,12.37 13.367,12.37 L22.401,12.37 C22.953,12.37 23.401,12.82 23.401,13.37 L23.401,22.4 C23.401,22.95 22.953,23.4 22.401,23.4 L22.401,23.4 Z" id="Fill-1108"></path>
            </g>
        </g>
    </g>
</svg>