<?xml version="1.0" encoding="UTF-8"?>
<svg width="25px" height="24px" viewBox="0 0 25 24" version="1.1" xmlns="http://www.w3.org/2000/svg" xmlns:xlink="http://www.w3.org/1999/xlink">
    <!-- Generator: Sketch 60.1 (88133) - https://sketch.com -->
    <title>header</title>
    <desc>Created with Sketch.</desc>
    <g id="Page-1" stroke="none" stroke-width="1" fill="none" fill-rule="evenodd">
        <g id="CircleLineIcons-14" transform="translate(-1447.000000, -939.000000)" fill="#000000">
            <g id="header" transform="translate(1447.720000, 939.009000)">
                <path d="M2,21.771 L21.77,21.771 L21.77,2 L2,2 L2,21.771 Z M22.77,23.771 L1,23.771 C0.44,23.771 1.77635684e-15,23.324 1.77635684e-15,22.771 L1.77635684e-15,1 C1.77635684e-15,0.447 0.44,-1.77635684e-15 1,-1.77635684e-15 L22.77,-1.77635684e-15 C23.32,-1.77635684e-15 23.77,0.447 23.77,1 L23.77,22.771 C23.77,23.324 23.32,23.771 22.77,23.771 L22.77,23.771 Z" id="Fill-2935"></path>
                <path d="M22.41,7.329 L1.35,7.329 C1.07,7.329 0.85,7.105 0.85,6.829 C0.85,6.553 1.07,6.329 1.35,6.329 L22.41,6.329 C22.69,6.329 22.91,6.553 22.91,6.829 C22.91,7.105 22.69,7.329 22.41,7.329" id="Fill-2936"></path>
                <path d="M4.54,2.935 C3.84,2.935 3.28,3.5 3.28,4.196 C3.28,4.891 3.84,5.455 4.54,5.455 C5.23,5.455 5.8,4.891 5.8,4.196 C5.8,3.5 5.23,2.935 4.54,2.935" id="Fill-2937"></path>
                <path d="M7.95,2.935 C7.26,2.935 6.69,3.5 6.69,4.196 C6.69,4.891 7.26,5.455 7.95,5.455 C8.65,5.455 9.21,4.891 9.21,4.196 C9.21,3.5 8.65,2.935 7.95,2.935" id="Fill-2938"></path>
                <path d="M11.36,2.935 C10.67,2.935 10.1,3.5 10.1,4.196 C10.1,4.891 10.67,5.455 11.36,5.455 C12.06,5.455 12.62,4.891 12.62,4.196 C12.62,3.5 12.06,2.935 11.36,2.935" id="Fill-2939"></path>
                <path d="M22.41,11.079 L1.35,11.079 C1.07,11.079 0.85,10.855 0.85,10.579 C0.85,10.303 1.07,10.079 1.35,10.079 L22.41,10.079 C22.69,10.079 22.91,10.303 22.91,10.579 C22.91,10.855 22.69,11.079 22.41,11.079" id="Fill-2940"></path>
                <path d="M7.63,23.297 C7.42,23.297 7.26,23.129 7.26,22.922 L7.26,10.746 C7.26,10.539 7.42,10.371 7.63,10.371 C7.84,10.371 8.01,10.539 8.01,10.746 L8.01,22.922 C8.01,23.129 7.84,23.297 7.63,23.297" id="Fill-2941"></path>
            </g>
        </g>
    </g>
</svg>