<?xml version="1.0" encoding="UTF-8"?>
<svg width="24px" height="24px" viewBox="0 0 24 24" version="1.1" xmlns="http://www.w3.org/2000/svg" xmlns:xlink="http://www.w3.org/1999/xlink">
    <!-- Generator: Sketch 60.1 (88133) - https://sketch.com -->
    <title>heading</title>
    <desc>Created with Sketch.</desc>
    <g id="Page-1" stroke="none" stroke-width="1" fill="none" fill-rule="evenodd">
        <g id="CircleLineIcons-14" transform="translate(-222.000000, -877.000000)" fill="#000000">
            <g id="heading" transform="translate(222.663229, 877.930000)">
                <path d="M2.27477121,16.574 L2.06477121,20.15 L5.63777121,19.94 L19.7977712,5.777 L16.4357712,2.415 L2.27477121,16.574 Z M0.999771209,22.214 C0.734771209,22.214 0.480771209,22.109 0.292771209,21.921 C0.0907712086,21.718 -0.0152287914,21.44 0.00177120863,21.155 L0.300771209,16.077 C0.314771209,15.832 0.418771209,15.601 0.591771209,15.428 L15.7287712,0.293 C15.9157712,0.105 16.1697712,0 16.4357712,0 C16.7007712,0 16.9557712,0.105 17.1437712,0.293 L21.9187712,5.068 C22.1077712,5.256 22.2127712,5.51 22.2127712,5.776 C22.2127712,6.041 22.1077712,6.296 21.9197712,6.483 L6.78277121,21.624 C6.60977121,21.797 6.37877121,21.901 6.13477121,21.915 L1.05877121,22.212 C1.03877121,22.213 1.01977121,22.214 0.999771209,22.214 L0.999771209,22.214 Z" id="Fill-2044"></path>
                <path d="M18.5177712,8.993 C18.2617712,8.993 18.0057712,8.895 17.8107712,8.7 L13.5157712,4.403 C13.1247712,4.012 13.1247712,3.38 13.5157712,2.989 C13.9057712,2.598 14.5387712,2.598 14.9297712,2.989 L19.2247712,7.286 C19.6147712,7.676 19.6147712,8.309 19.2247712,8.7 C19.0287712,8.895 18.7737712,8.993 18.5177712,8.993" id="Fill-2045"></path>
                <path d="M4.47877121,18.735 C4.22277121,18.735 3.96677121,18.637 3.77177121,18.442 C3.38077121,18.051 3.38077121,17.419 3.77177121,17.028 L15.5877712,5.213 C15.9787712,4.822 16.6107712,4.822 17.0017712,5.213 C17.3927712,5.603 17.3927712,6.236 17.0017712,6.627 L5.18577121,18.442 C4.98977121,18.637 4.73377121,18.735 4.47877121,18.735" id="Fill-2046"></path>
                <path d="M1.56377121,18.728 C1.49477121,18.728 1.42677121,18.731 1.35777121,18.737 C1.29077121,18.745 1.23277121,18.765 1.16977121,18.776 L1.02377121,21.239 L3.38677121,21.096 C3.40777121,21.007 3.43177121,20.917 3.44277121,20.823 C3.55077121,19.625 2.72377121,18.728 1.56377121,18.728" id="Fill-2047"></path>
                <path d="M22.2067712,22.053 L11.0387712,22.053 C10.4857712,22.053 10.0387712,21.606 10.0387712,21.053 C10.0387712,20.501 10.4857712,20.053 11.0387712,20.053 L22.2067712,20.053 C22.7597712,20.053 23.2067712,20.501 23.2067712,21.053 C23.2067712,21.606 22.7597712,22.053 22.2067712,22.053" id="Fill-2048"></path>
            </g>
        </g>
    </g>
</svg>