<?xml version="1.0" encoding="UTF-8"?>
<svg width="25px" height="25px" viewBox="0 0 25 25" version="1.1" xmlns="http://www.w3.org/2000/svg" xmlns:xlink="http://www.w3.org/1999/xlink">
    <!-- Generator: Sketch 60.1 (88133) - https://sketch.com -->
    <title>hero</title>
    <desc>Created with Sketch.</desc>
    <g id="Page-1" stroke="none" stroke-width="1" fill="none" fill-rule="evenodd">
        <g id="CircleLineIcons-14" transform="translate(-712.000000, -1186.000000)" fill="#000000">
            <g id="hero" transform="translate(712.692000, 1186.650000)">
                <path d="M2.106,21.4 L21.401,21.4 L21.401,2.1 L2.106,2.1 L2.106,21.4 Z M22.454,23.5 L1.053,23.5 C0.472,23.5 -5.68434189e-14,23.03 -5.68434189e-14,22.45 L-5.68434189e-14,1.05 C-5.68434189e-14,0.47 0.472,0 1.053,0 L22.454,0 C23.035,0 23.506,0.47 23.506,1.05 L23.506,22.45 C23.506,23.03 23.035,23.5 22.454,23.5 L22.454,23.5 Z" id="Fill-1092"></path>
                <path d="M22.102,12.28 L1.403,12.28 C1.112,12.28 0.876,12.04 0.876,11.75 C0.876,11.46 1.112,11.22 1.403,11.22 L22.102,11.22 C22.393,11.22 22.628,11.46 22.628,11.75 C22.628,12.04 22.393,12.28 22.102,12.28" id="Fill-1093"></path>
                <path d="M11.754,22.63 C11.463,22.63 11.228,22.39 11.228,22.1 L11.228,1.4 C11.228,1.11 11.463,0.88 11.754,0.88 C12.045,0.88 12.281,1.11 12.281,1.4 L12.281,22.1 C12.281,22.39 12.045,22.63 11.754,22.63" id="Fill-1094"></path>
            </g>
        </g>
    </g>
</svg>