<?xml version="1.0" encoding="UTF-8"?>
<svg width="25px" height="19px" viewBox="0 0 25 19" version="1.1" xmlns="http://www.w3.org/2000/svg" xmlns:xlink="http://www.w3.org/1999/xlink">
    <!-- Generator: Sketch 60.1 (88133) - https://sketch.com -->
    <title>hero-slider</title>
    <desc>Created with Sketch.</desc>
    <g id="Page-1" stroke="none" stroke-width="1" fill="none" fill-rule="evenodd">
        <g id="CircleLineIcons-14" transform="translate(-1079.000000, -1189.000000)" fill="#000000">
            <g id="hero-slider" transform="translate(1079.950000, 1189.690000)">
                <path d="M6.55,14 L17.13,14 L17.13,3.42 L6.55,3.42 L6.55,14 Z M18.13,16 L5.55,16 C4.99,16 4.55,15.56 4.55,15 L4.55,2.42 C4.55,1.87 4.99,1.42 5.55,1.42 L18.13,1.42 C18.68,1.42 19.13,1.87 19.13,2.42 L19.13,15 C19.13,15.56 18.68,16 18.13,16 L18.13,16 Z" id="Fill-2730"></path>
                <path d="M0.5,17.42 C0.23,17.42 0,17.2 0,16.92 L0,0.5 C0,0.23 0.23,0 0.5,0 C0.78,0 1,0.23 1,0.5 L1,16.92 C1,17.2 0.78,17.42 0.5,17.42" id="Fill-2731"></path>
                <path d="M2.75,16.32 C2.48,16.32 2.25,16.1 2.25,15.82 L2.25,1.6 C2.25,1.32 2.48,1.1 2.75,1.1 C3.03,1.1 3.25,1.32 3.25,1.6 L3.25,15.82 C3.25,16.1 3.03,16.32 2.75,16.32" id="Fill-2732"></path>
                <path d="M23.17,17.42 C22.89,17.42 22.67,17.2 22.67,16.92 L22.67,0.5 C22.67,0.23 22.89,0 23.17,0 C23.45,0 23.67,0.23 23.67,0.5 L23.67,16.92 C23.67,17.2 23.45,17.42 23.17,17.42" id="Fill-2733"></path>
                <path d="M20.92,16.32 C20.64,16.32 20.42,16.1 20.42,15.82 L20.42,1.6 C20.42,1.32 20.64,1.1 20.92,1.1 C21.2,1.1 21.42,1.32 21.42,1.6 L21.42,15.82 C21.42,16.1 21.2,16.32 20.92,16.32" id="Fill-2734"></path>
            </g>
        </g>
    </g>
</svg>