<?xml version="1.0" encoding="UTF-8"?>
<svg width="24px" height="24px" viewBox="0 0 24 24" version="1.1" xmlns="http://www.w3.org/2000/svg" xmlns:xlink="http://www.w3.org/1999/xlink">
    <!-- Generator: Sketch 60.1 (88133) - https://sketch.com -->
    <title>icon</title>
    <desc>Created with Sketch.</desc>
    <g id="Page-1" stroke="none" stroke-width="1" fill="none" fill-rule="evenodd">
        <g id="CircleLineIcons-14" transform="translate(-774.000000, -877.000000)" fill="#000000">
            <g id="icon" transform="translate(774.454185, 877.696000)">
                <path d="M8.77781486,13.929 C8.90081486,13.943 9.02781486,13.953 9.15981486,13.963 C9.44781486,13.983 9.71281486,14.126 9.88681486,14.357 C11.0168149,15.848 11.5628149,17.67 11.4778149,19.475 C12.7518149,18.13 13.2808149,16.245 12.8978149,14.397 C12.7988149,13.919 13.0588149,13.44 13.5128149,13.262 C14.9868149,12.686 16.3008149,11.826 17.4178149,10.709 C19.7978149,8.329 20.9978149,5.074 20.6428149,2.063 C17.6278149,1.71 14.3598149,2.925 11.9978149,5.287 C10.8798149,6.404 10.0208149,7.718 9.44281486,9.193 C9.26481486,9.646 8.79281486,9.908 8.30981486,9.808 C6.47781486,9.433 4.56781486,9.963 3.23381486,11.225 C5.04981486,11.154 6.88981486,11.713 8.34981486,12.82 C8.57881486,12.993 8.72281486,13.257 8.74281486,13.543 C8.75281486,13.678 8.76481486,13.806 8.77781486,13.929 Z M9.96481486,22.706 C9.70481486,22.706 9.44881486,22.605 9.25781486,22.413 C8.96981486,22.125 8.88581486,21.693 9.04281486,21.318 C9.78381486,19.56 9.58581486,17.528 8.53881486,15.914 C8.24681486,15.882 7.97181486,15.84 7.70581486,15.787 C7.30981486,15.709 6.99881486,15.4 6.91981486,15.003 C6.86681486,14.742 6.82481486,14.465 6.79181486,14.168 C5.19681486,13.133 3.11181486,12.933 1.38781486,13.659 C1.01381486,13.817 0.579814855,13.732 0.292814855,13.445 C0.00581485531,13.158 -0.0791851447,12.725 0.0778148553,12.35 C0.463814855,11.433 1.01181486,10.616 1.70681486,9.92 C3.32981486,8.299 5.59481486,7.498 7.89581486,7.725 C8.55781486,6.288 9.45981486,4.995 10.5838149,3.872 C13.0438149,1.412 16.3218149,0 19.5778149,0 C20.3018149,0 21.0198149,0.071 21.7118149,0.209 C22.1078149,0.288 22.4168149,0.598 22.4958149,0.993 C23.2628149,4.832 21.8588149,9.097 18.8318149,12.123 C17.7088149,13.247 16.4168149,14.149 14.9818149,14.81 C15.2108149,17.102 14.4188149,19.367 12.7848149,20.999 C12.0958149,21.691 11.2758149,22.24 10.3528149,22.628 C10.2278149,22.681 10.0958149,22.706 9.96481486,22.706 L9.96481486,22.706 Z" id="Fill-1996"></path>
                <path d="M16.2878149,4.915 C15.8878149,4.915 15.5108149,5.072 15.2268149,5.355 C14.6428149,5.94 14.6438149,6.892 15.2288149,7.477 C15.7948149,8.043 16.7828149,8.043 17.3498149,7.477 C17.6328149,7.194 17.7888149,6.817 17.7888149,6.415 C17.7888149,6.015 17.6328149,5.638 17.3498149,5.355 C17.0668149,5.072 16.6898149,4.915 16.2878149,4.915 Z M16.2898149,8.915 C15.6218149,8.915 14.9938149,8.656 14.5218149,8.184 C13.5468149,7.209 13.5458149,5.622 14.5198149,4.648 C15.4678149,3.702 17.1118149,3.704 18.0568149,4.648 C18.5288149,5.119 18.7888149,5.747 18.7888149,6.415 C18.7888149,7.083 18.5288149,7.711 18.0568149,8.184 C17.5848149,8.656 16.9568149,8.915 16.2898149,8.915 L16.2898149,8.915 Z" id="Fill-1997"></path>
                <path d="M4.91881486,19.274 C4.58681486,19.274 4.25481486,19.246 3.92581486,19.192 C3.71481486,19.157 3.54981486,18.992 3.51481486,18.781 C3.17081486,16.725 3.91681486,14.545 5.50981486,12.951 C5.70481486,12.756 6.02181486,12.756 6.21681486,12.951 C6.41181486,13.147 6.41181486,13.463 6.21681486,13.658 C4.94581486,14.93 4.30281486,16.622 4.45381486,18.252 C6.08481486,18.412 7.77581486,17.758 9.04681486,16.488 C9.24181486,16.292 9.55881486,16.292 9.75381486,16.488 C9.94881486,16.683 9.94881486,16.999 9.75381486,17.195 C8.41381486,18.533 6.66281486,19.274 4.91881486,19.274" id="Fill-1998"></path>
            </g>
        </g>
    </g>
</svg>