<?xml version="1.0" encoding="UTF-8"?>
<svg width="25px" height="21px" viewBox="0 0 25 21" version="1.1" xmlns="http://www.w3.org/2000/svg" xmlns:xlink="http://www.w3.org/1999/xlink">
    <!-- Generator: Sketch 60.1 (88133) - https://sketch.com -->
    <title>image</title>
    <desc>Created with Sketch.</desc>
    <g id="Page-1" stroke="none" stroke-width="1" fill="none" fill-rule="evenodd">
        <g id="CircleLineIcons-14" transform="translate(-1018.000000, -1436.000000)" fill="#000000">
            <g id="image" transform="translate(1018.640000, 1436.050000)">
                <path d="M2,18.06 L21.67,18.06 L21.67,2 L2,2 L2,18.06 Z M22.67,20.06 L1,20.06 C0.45,20.06 5.68434189e-14,19.61 5.68434189e-14,19.06 L5.68434189e-14,1 C5.68434189e-14,0.45 0.45,-5.68434189e-14 1,-5.68434189e-14 L22.67,-5.68434189e-14 C23.22,-5.68434189e-14 23.67,0.45 23.67,1 L23.67,19.06 C23.67,19.61 23.22,20.06 22.67,20.06 L22.67,20.06 Z" id="Fill-1974"></path>
                <path d="M22.01,16.44 C21.78,16.44 21.55,16.36 21.36,16.2 L17.34,12.76 L12.34,16.09 L5.99,9.27 L1.72,13.68 C1.33,14.08 0.7,14.08 0.3,13.7 C-0.09,13.32 -0.1,12.68 0.28,12.29 L6.02,6.36 L12.64,13.48 L17.49,10.25 L22.66,14.68 C23.08,15.04 23.13,15.67 22.77,16.09 C22.57,16.33 22.29,16.44 22.01,16.44" id="Fill-1975"></path>
                <path d="M13.02,4.75 C12.15,4.75 11.44,5.46 11.44,6.33 C11.44,7.21 12.15,7.92 13.02,7.92 C13.9,7.92 14.61,7.21 14.61,6.33 C14.61,5.46 13.9,4.75 13.02,4.75 Z M13.02,9.92 C11.05,9.92 9.44,8.31 9.44,6.33 C9.44,4.36 11.05,2.75 13.02,2.75 C15,2.75 16.61,4.36 16.61,6.33 C16.61,8.31 15,9.92 13.02,9.92 L13.02,9.92 Z" id="Fill-1976"></path>
            </g>
        </g>
    </g>
</svg>