<?xml version="1.0" encoding="UTF-8"?>
<svg width="24px" height="25px" viewBox="0 0 24 25" version="1.1" xmlns="http://www.w3.org/2000/svg" xmlns:xlink="http://www.w3.org/1999/xlink">
    <!-- Generator: Sketch 60.1 (88133) - https://sketch.com -->
    <title>list</title>
    <desc>Created with Sketch.</desc>
    <g id="Page-1" stroke="none" stroke-width="1" fill="none" fill-rule="evenodd">
        <g id="CircleLineIcons-14" transform="translate(-100.000000, -1186.000000)" fill="#000000">
            <g id="list" transform="translate(100.306000, 1186.740000)">
                <path d="M22.545,3.66 L9.045,3.66 C8.492,3.66 8.045,3.22 8.045,2.66 C8.045,2.11 8.492,1.66 9.045,1.66 L22.545,1.66 C23.097,1.66 23.545,2.11 23.545,2.66 C23.545,3.22 23.097,3.66 22.545,3.66" id="Fill-2814"></path>
                <path d="M2,3.33 L3.334,3.33 L3.334,2 L2,2 L2,3.33 Z M4.334,5.33 L1,5.33 C0.447,5.33 0,4.88 0,4.33 L0,1 C0,0.44 0.447,0 1,0 L4.334,0 C4.886,0 5.334,0.44 5.334,1 L5.334,4.33 C5.334,4.88 4.886,5.33 4.334,5.33 L4.334,5.33 Z" id="Fill-2815"></path>
                <path d="M22.545,12.66 L9.045,12.66 C8.492,12.66 8.045,12.22 8.045,11.66 C8.045,11.11 8.492,10.66 9.045,10.66 L22.545,10.66 C23.097,10.66 23.545,11.11 23.545,11.66 C23.545,12.22 23.097,12.66 22.545,12.66" id="Fill-2816"></path>
                <path d="M2,12.33 L3.334,12.33 L3.334,11 L2,11 L2,12.33 Z M4.334,14.33 L1,14.33 C0.447,14.33 0,13.88 0,13.33 L0,10 C0,9.44 0.447,9 1,9 L4.334,9 C4.886,9 5.334,9.44 5.334,10 L5.334,13.33 C5.334,13.88 4.886,14.33 4.334,14.33 L4.334,14.33 Z" id="Fill-2817"></path>
                <path d="M22.545,21.66 L9.045,21.66 C8.492,21.66 8.045,21.22 8.045,20.66 C8.045,20.11 8.492,19.66 9.045,19.66 L22.545,19.66 C23.097,19.66 23.545,20.11 23.545,20.66 C23.545,21.22 23.097,21.66 22.545,21.66" id="Fill-2818"></path>
                <path d="M2,21.33 L3.334,21.33 L3.334,20 L2,20 L2,21.33 Z M4.334,23.33 L1,23.33 C0.447,23.33 0,22.88 0,22.33 L0,19 C0,18.44 0.447,18 1,18 L4.334,18 C4.886,18 5.334,18.44 5.334,19 L5.334,22.33 C5.334,22.88 4.886,23.33 4.334,23.33 L4.334,23.33 Z" id="Fill-2819"></path>
            </g>
        </g>
    </g>
</svg>