<?xml version="1.0" encoding="UTF-8"?>
<svg width="25px" height="25px" viewBox="0 0 25 25" version="1.1" xmlns="http://www.w3.org/2000/svg" xmlns:xlink="http://www.w3.org/1999/xlink">
    <!-- Generator: Sketch 60.1 (88133) - https://sketch.com -->
    <title>logo</title>
    <desc>Created with Sketch.</desc>
    <g id="Page-1" stroke="none" stroke-width="1" fill="none" fill-rule="evenodd">
        <g id="CircleLineIcons-14" transform="translate(-1569.000000, -1124.000000)" fill="#000000">
            <g id="logo" transform="translate(1569.218384, 1124.204951)">
                <path d="M16.6916156,16.0150495 L14.8016156,15.3650495 C15.0416156,14.6750495 15.2516156,13.9750495 15.4316156,13.2850495 C16.2216156,10.3450495 16.5616156,7.48504947 16.3816156,5.23504947 C16.2116156,3.19504947 15.6416156,2.14504947 15.1416156,2.01504947 C14.5416156,1.86504947 13.0716156,2.77504947 11.4116156,5.96504947 L9.63161564,5.04504947 C11.5416156,1.37504947 13.7416156,-0.424950528 15.6616156,0.0850494721 C16.7416156,0.375049472 18.0816156,1.47504947 18.3716156,5.07504947 C18.5716156,7.54504947 18.2116156,10.6450495 17.3716156,13.7950495 C17.1716156,14.5350495 16.9416156,15.2750495 16.6916156,16.0150495" id="Fill-3098"></path>
                <path d="M16.2016156,11.7250495 C15.7316156,11.1850495 15.2316156,10.6450495 14.7116156,10.1350495 C12.5616156,7.98504947 10.2516156,6.26504947 8.22161564,5.29504947 C6.37161564,4.41504947 5.18161564,4.38504947 4.81161564,4.75504947 C4.38161564,5.18504947 4.43161564,6.93504947 6.36161564,9.96504947 L4.68161564,11.0350495 C2.45161564,7.55504947 1.99161564,4.74504947 3.40161564,3.33504947 C4.18161564,2.54504947 5.81161564,1.93504947 9.08161564,3.48504947 C11.3116156,4.55504947 13.8216156,6.41504947 16.1216156,8.71504947 C16.6716156,9.26504947 17.2016156,9.83504947 17.7016156,10.4050495 L16.2016156,11.7250495" id="Fill-3099"></path>
                <path d="M6.47161564,18.3550495 C2.86161564,18.3550495 0.561615643,17.3650495 0.0816156429,15.5850495 C-0.0483843571,15.0850495 -0.0883843571,14.2750495 0.471615643,13.2950495 C1.80161564,11.0050495 5.97161564,8.62504947 11.1116156,7.25504947 C11.8516156,7.05504947 12.6116156,6.87504947 13.3616156,6.73504947 L13.7416156,8.69504947 C13.0416156,8.83504947 12.3316156,8.99504947 11.6216156,9.18504947 C6.37161564,10.5950495 3.06161564,12.8250495 2.21161564,14.2950495 C2.08161564,14.5050495 1.95161564,14.8150495 2.01161564,15.0650495 C2.17161564,15.6650495 3.70161564,16.4750495 7.30161564,16.3350495 L7.39161564,18.3350495 C7.07161564,18.3450495 6.77161564,18.3550495 6.47161564,18.3550495" id="Fill-3100"></path>
                <path d="M9.69161564,24.6650495 C9.47161564,24.6650495 9.25161564,24.6350495 9.03161564,24.5850495 C7.96161564,24.2950495 6.61161564,23.1950495 6.32161564,19.5850495 C6.13161564,17.1150495 6.48161564,14.0250495 7.33161564,10.8650495 C7.53161564,10.1050495 7.76161564,9.35504947 8.00161564,8.65504947 L9.89161564,9.30504947 C9.67161564,9.96504947 9.45161564,10.6650495 9.26161564,11.3850495 C8.47161564,14.3250495 8.14161564,17.1850495 8.32161564,19.4250495 C8.48161564,21.4650495 9.05161564,22.5150495 9.55161564,22.6550495 C10.1616156,22.8050495 11.6316156,21.8850495 13.2916156,18.7050495 L15.0616156,19.6250495 C13.3716156,22.8750495 11.4516156,24.6650495 9.69161564,24.6650495" id="Fill-3101"></path>
                <path d="M19.1216156,22.1350495 C16.4716156,22.1350495 12.3316156,19.7050495 8.57161564,15.9450495 C8.02161564,15.3950495 7.49161564,14.8350495 6.99161564,14.2550495 L8.50161564,12.9450495 C8.97161564,13.4850495 9.47161564,14.0150495 9.98161564,14.5350495 C13.8316156,18.3850495 17.4116156,20.1350495 19.1216156,20.1350495 C19.3716156,20.1350495 19.7016156,20.0950495 19.8816156,19.9150495 C20.3216156,19.4750495 20.2616156,17.7350495 18.3316156,14.7050495 L20.0216156,13.6250495 C22.2416156,17.1150495 22.7116156,19.9250495 21.3016156,21.3250495 C20.9316156,21.6950495 20.2516156,22.1350495 19.1216156,22.1350495" id="Fill-3102"></path>
                <path d="M11.3316156,17.9350495 L10.9516156,15.9750495 C11.6416156,15.8350495 12.3616156,15.6750495 13.0716156,15.4850495 C16.0116156,14.6950495 18.6516156,13.5550495 20.5116156,12.2750495 C22.1916156,11.1150495 22.8116156,10.0950495 22.6816156,9.59504947 C22.5216156,9.00504947 20.9816156,8.17504947 17.3916156,8.33504947 L17.3116156,6.33504947 C21.4416156,6.15504947 24.1016156,7.15504947 24.6116156,9.07504947 C24.9016156,10.1550495 24.6216156,11.8750495 21.6416156,13.9250495 C19.6016156,15.3250495 16.7416156,16.5650495 13.5916156,17.4150495 C12.8316156,17.6150495 12.0716156,17.7950495 11.3316156,17.9350495" id="Fill-3103"></path>
                <path d="M12.3516156,11.0750495 C11.6516156,11.0750495 11.0916156,11.6350495 11.0916156,12.3350495 C11.0916156,13.0250495 11.6516156,13.5950495 12.3516156,13.5950495 C13.0416156,13.5950495 13.6116156,13.0250495 13.6116156,12.3350495 C13.6116156,11.6350495 13.0416156,11.0750495 12.3516156,11.0750495" id="Fill-3104"></path>
            </g>
        </g>
    </g>
</svg>