<?xml version="1.0" encoding="UTF-8"?>
<svg width="26px" height="27px" viewBox="0 0 26 27" version="1.1" xmlns="http://www.w3.org/2000/svg" xmlns:xlink="http://www.w3.org/1999/xlink">
    <!-- Generator: Sketch 60.1 (88133) - https://sketch.com -->
    <title>menu</title>
    <desc>Created with Sketch.</desc>
    <g id="Page-1" stroke="none" stroke-width="1" fill="none" fill-rule="evenodd">
        <g id="CircleLineIcons-14" transform="translate(-344.000000, -1123.000000)" fill="#000000">
            <g id="menu" transform="translate(344.901000, 1123.511963)">
                <path d="M2,5.91803684 L2,23.6080368 L11.196,20.1380368 L11.196,2.44803684 L2,5.91803684 Z M1,26.0580368 C0.8,26.0580368 0.601,25.9980368 0.432,25.8780368 C0.162,25.6880368 -2.84217094e-14,25.3780368 -2.84217094e-14,25.0580368 L-2.84217094e-14,5.22803684 C-2.84217094e-14,4.80803684 0.258,4.43803684 0.647,4.28803684 L11.842,0.0680368368 C12.152,-0.0519631632 12.495,-0.0119631632 12.764,0.178036837 C13.035,0.368036837 13.196,0.668036837 13.196,0.998036837 L13.196,20.8280368 C13.196,21.2480368 12.938,21.6180368 12.549,21.7680368 L1.354,25.9880368 C1.239,26.0280368 1.12,26.0580368 1,26.0580368 L1,26.0580368 Z" id="Fill-1120"></path>
                <path d="M3.313,10.0480368 C3.111,10.0480368 2.92,9.91803684 2.845,9.71803684 C2.747,9.46803684 2.878,9.17803684 3.136,9.07803684 L9.82,6.55803684 C10.08,6.45803684 10.368,6.58803684 10.464,6.84803684 C10.562,7.10803684 10.431,7.38803684 10.173,7.48803684 L3.49,10.0180368 C3.431,10.0380368 3.371,10.0480368 3.313,10.0480368" id="Fill-1121"></path>
                <path d="M3.313,16.4880368 C3.111,16.4880368 2.92,16.3580368 2.845,16.1580368 C2.747,15.8980368 2.878,15.6180368 3.136,15.5180368 L9.818,12.9880368 C10.078,12.8980368 10.366,13.0280368 10.462,13.2880368 C10.56,13.5380368 10.429,13.8280368 10.171,13.9280368 L3.49,16.4480368 C3.431,16.4780368 3.371,16.4880368 3.313,16.4880368" id="Fill-1122"></path>
                <path d="M3.313,19.7080368 C3.111,19.7080368 2.92,19.5780368 2.845,19.3780368 C2.747,19.1180368 2.878,18.8380368 3.136,18.7380368 L9.82,16.2080368 C10.08,16.1180368 10.368,16.2480368 10.464,16.5080368 C10.562,16.7580368 10.431,17.0480368 10.173,17.1480368 L3.49,19.6680368 C3.431,19.6980368 3.371,19.7080368 3.313,19.7080368" id="Fill-1123"></path>
                <path d="M3.313,13.2680368 C3.111,13.2680368 2.92,13.1380368 2.845,12.9380368 C2.747,12.6880368 2.878,12.3980368 3.136,12.2980368 L9.818,9.77803684 C10.078,9.67803684 10.366,9.80803684 10.462,10.0680368 C10.56,10.3280368 10.429,10.6080368 10.171,10.7080368 L3.49,13.2380368 C3.431,13.2580368 3.371,13.2680368 3.313,13.2680368" id="Fill-1124"></path>
                <path d="M19.278,23.9980368 C19.001,23.9980368 18.778,23.7780368 18.778,23.4980368 L18.778,17.7080368 C18.778,17.5380368 18.859,17.3880368 18.994,17.2980368 C19.129,17.1980368 19.3,17.1780368 19.454,17.2380368 L23.566,18.7880368 C23.824,18.8880368 23.954,19.1780368 23.857,19.4380368 C23.76,19.6980368 23.473,19.8180368 23.212,19.7280368 L19.778,18.4280368 L19.778,23.4980368 C19.778,23.7780368 19.554,23.9980368 19.278,23.9980368" id="Fill-1125"></path>
                <path d="M13.196,20.1380368 L19.017,22.3380368 L22.389,18.8580368 L22.387,5.91803684 L13.196,2.44803684 L13.196,20.1380368 Z M19.278,24.4980368 C19.159,24.4980368 19.039,24.4780368 18.924,24.4380368 L11.842,21.7680368 C11.453,21.6180368 11.196,21.2480368 11.196,20.8280368 L11.196,0.998036837 C11.196,0.668036837 11.357,0.368036837 11.627,0.178036837 C11.896,-0.0119631632 12.243,-0.0519631632 12.549,0.0680368368 L23.741,4.28803684 C24.129,4.43803684 24.387,4.80803684 24.387,5.22803684 L24.389,19.2580368 C24.389,19.5180368 24.288,19.7680368 24.107,19.9580368 L19.995,24.1980368 C19.804,24.3980368 19.543,24.4980368 19.278,24.4980368 L19.278,24.4980368 Z" id="Fill-1126"></path>
                <path d="M21.303,10.1280368 C21.245,10.1280368 21.185,10.1180368 21.126,10.0980368 L14.445,7.57803684 C14.187,7.47803684 14.056,7.18803684 14.154,6.92803684 C14.25,6.66803684 14.537,6.54803684 14.798,6.63803684 L21.48,9.16803684 C21.738,9.25803684 21.869,9.54803684 21.771,9.80803684 C21.696,10.0080368 21.505,10.1280368 21.303,10.1280368" id="Fill-1127"></path>
                <path d="M21.303,16.5680368 C21.245,16.5680368 21.185,16.5580368 21.126,16.5380368 L14.445,14.0180368 C14.187,13.9180368 14.056,13.6280368 14.154,13.3680368 C14.25,13.1080368 14.537,12.9780368 14.798,13.0780368 L21.48,15.5980368 C21.738,15.6980368 21.869,15.9880368 21.771,16.2480368 C21.696,16.4480368 21.505,16.5680368 21.303,16.5680368" id="Fill-1128"></path>
                <path d="M21.303,13.3480368 C21.245,13.3480368 21.185,13.3380368 21.126,13.3180368 L14.445,10.7980368 C14.187,10.6980368 14.056,10.4080368 14.154,10.1480368 C14.25,9.88803684 14.537,9.76803684 14.798,9.85803684 L21.48,12.3880368 C21.738,12.4780368 21.869,12.7680368 21.771,13.0280368 C21.696,13.2280368 21.505,13.3480368 21.303,13.3480368" id="Fill-1129"></path>
            </g>
        </g>
    </g>
</svg>