<?xml version="1.0" encoding="UTF-8"?>
<svg width="25px" height="23px" viewBox="0 0 25 23" version="1.1" xmlns="http://www.w3.org/2000/svg" xmlns:xlink="http://www.w3.org/1999/xlink">
    <!-- Generator: Sketch 60.1 (88133) - https://sketch.com -->
    <title>misc</title>
    <desc>Created with Sketch.</desc>
    <g id="Page-1" stroke="none" stroke-width="1" fill="none" fill-rule="evenodd">
        <g id="CircleLineIcons-14" transform="translate(-1508.000000, -878.000000)" fill="#000000">
            <g id="misc" transform="translate(1508.417500, 877.967327)">
                <path d="M18.3325,16.6786729 C18.0725,16.6786729 17.8125,16.5806729 17.6225,16.3856729 C17.2325,15.9946729 17.2325,15.3616729 17.6225,14.9706729 L21.5025,11.0826729 L17.6225,7.18967291 C17.2325,6.79867291 17.2325,6.16567291 17.6225,5.77467291 C18.0125,5.38667291 18.6425,5.38567291 19.0325,5.77567291 L23.6325,10.3756729 C24.0225,10.7656729 24.0225,11.3986729 23.6325,11.7896729 L19.0325,16.3856729 C18.8425,16.5806729 18.5825,16.6786729 18.3325,16.6786729" id="Fill-2820"></path>
                <path d="M5.5925,16.6786729 C5.3425,16.6786729 5.0825,16.5806729 4.8925,16.3856729 L0.2925,11.7896729 C-0.0975,11.3986729 -0.0975,10.7656729 0.2925,10.3756729 L4.8925,5.77567291 C5.2825,5.38567291 5.9125,5.38667291 6.3025,5.77467291 C6.6925,6.16567291 6.6925,6.79867291 6.3025,7.18967291 L2.4125,11.0826729 L6.3025,14.9706729 C6.6925,15.3616729 6.6925,15.9946729 6.3025,16.3856729 C6.1125,16.5806729 5.8525,16.6786729 5.5925,16.6786729" id="Fill-2821"></path>
                <path d="M8.2125,22.1646729 C8.1025,22.1646729 7.9825,22.1446729 7.8725,22.1016729 C7.3525,21.9096729 7.0825,21.3336729 7.2825,20.8156729 L14.7725,0.651672906 C14.9625,0.134672906 15.5425,-0.129327094 16.0525,0.0626729058 C16.5725,0.255672906 16.8425,0.831672906 16.6425,1.34867291 L9.1525,21.5126729 C9.0025,21.9156729 8.6225,22.1646729 8.2125,22.1646729" id="Fill-2822"></path>
            </g>
        </g>
    </g>
</svg>