<?xml version="1.0" encoding="UTF-8"?>
<svg width="24px" height="24px" viewBox="0 0 24 24" version="1.1" xmlns="http://www.w3.org/2000/svg" xmlns:xlink="http://www.w3.org/1999/xlink">
    <!-- Generator: Sketch 60.1 (88133) - https://sketch.com -->
    <title>offer</title>
    <desc>Created with Sketch.</desc>
    <g id="Page-1" stroke="none" stroke-width="1" fill="none" fill-rule="evenodd">
        <g id="CircleLineIcons-14" transform="translate(-1876.000000, -815.000000)" fill="#000000">
            <g id="offer" transform="translate(1876.979985, 815.704000)">
                <path d="M11.0000152,23 C10.9900152,23 10.9800152,23 10.9700152,23 C4.91001522,22.983 -0.00998478306,18.035 -1.13686838e-13,11.97 L0.0300152169,1.22 C0.0300152169,0.669 0.480015217,0.223 1.03001522,0.223 C1.59001522,0.225 2.03001522,0.673 2.03001522,1.226 L2.00001522,11.976 C1.99001522,16.938 6.02001522,20.986 10.9800152,21 C10.9900152,21 10.9900152,21 11.0000152,21 C13.4000152,21 15.6500152,20.07 17.3500152,18.382 C19.0500152,16.687 20.0000152,14.429 20.0000152,12.025 L20.0300152,1.275 C20.0300152,0.724 20.4800152,0.277 21.0300152,0.277 C21.5900152,0.279 22.0300152,0.728 22.0300152,1.28 L22.0000152,12.03 C21.9900152,14.968 20.8400152,17.728 18.7600152,19.8 C16.6800152,21.864 13.9300152,23 11.0000152,23" id="Fill-2051"></path>
                <path d="M11.0000152,18 C11.0000152,18 10.9900152,18 10.9800152,18 C7.68001522,17.99 4.99001522,15.292 4.99998743,11.984 L5.03001522,1.234 C5.03001522,0.683 5.48001522,0.236 6.03001522,0.236 C6.59001522,0.238 7.03001522,0.687 7.03001522,1.239 L7.00001522,11.989 C7.00001522,14.194 8.79001522,15.994 10.9900152,16 L11.0000152,16 C12.0600152,16 13.0600152,15.586 13.8200152,14.835 C14.5800152,14.08 15.0000152,13.077 15.0000152,12.012 L15.0300152,1.261 C15.0300152,0.71 15.4800152,0.264 16.0300152,0.264 C16.5900152,0.266 17.0300152,0.714 17.0300152,1.267 L17.0000152,12.017 C17.0000152,13.616 16.3700152,15.121 15.2300152,16.253 C14.1000152,17.38 12.6000152,18 11.0000152,18" id="Fill-2052"></path>
                <path d="M6.03001522,2.049 L6.03001522,2.049 L1.05001522,2.035 C0.490015217,2.033 0.0500152169,1.585 0.0500152169,1.032 C0.0500152169,0.482 0.500015217,0.035 1.05001522,0.035 L6.04001522,0.049 C6.59001522,0.051 7.03001522,0.499 7.03001522,1.052 C7.03001522,1.603 6.58001522,2.049 6.03001522,2.049" id="Fill-2053"></path>
                <path d="M6.02001522,5.377 L6.02001522,5.377 L1.04001522,5.363 C0.760015217,5.362 0.540015217,5.138 0.540015217,4.862 C0.540015217,4.586 0.760015217,4.363 1.04001522,4.363 L6.02001522,4.377 C6.30001522,4.378 6.52001522,4.603 6.52001522,4.878 C6.52001522,5.154 6.30001522,5.377 6.02001522,5.377" id="Fill-2054"></path>
                <path d="M20.9800152,2 L16.0000152,2 C15.4400152,2 15.0000152,1.553 15.0000152,1 C15.0000152,0.447 15.4400152,0 16.0000152,0 L20.9800152,0 C21.5300152,0 21.9800152,0.447 21.9800152,1 C21.9800152,1.553 21.5300152,2 20.9800152,2" id="Fill-2055"></path>
                <path d="M20.9800152,5.328 L16.0000152,5.328 C15.7200152,5.328 15.5000152,5.105 15.5000152,4.828 C15.5000152,4.552 15.7200152,4.328 16.0000152,4.328 L20.9800152,4.328 C21.2600152,4.328 21.4800152,4.552 21.4800152,4.828 C21.4800152,5.105 21.2600152,5.328 20.9800152,5.328" id="Fill-2056"></path>
            </g>
        </g>
    </g>
</svg>