<?xml version="1.0" encoding="UTF-8"?>
<svg width="19px" height="26px" viewBox="0 0 19 26" version="1.1" xmlns="http://www.w3.org/2000/svg" xmlns:xlink="http://www.w3.org/1999/xlink">
    <!-- Generator: Sketch 60.1 (88133) - https://sketch.com -->
    <title>pricing</title>
    <desc>Created with Sketch.</desc>
    <g id="Page-1" stroke="none" stroke-width="1" fill="none" fill-rule="evenodd">
        <g id="CircleLineIcons-14" transform="translate(-1634.000000, -1000.000000)" fill="#000000">
            <g id="pricing" transform="translate(1634.010000, 1000.464035)">
                <path d="M9.69,16.1659654 L9.69,18.8759654 C10.11,18.7959654 10.43,18.6259654 10.66,18.3759654 C10.88,18.1259654 11,17.8359654 11,17.4959654 C11,17.1459654 10.89,16.8659654 10.66,16.6659654 C10.44,16.4759654 10.12,16.3059654 9.69,16.1659654 Z M8.91,14.3359654 L8.91,11.9659654 C8.56,12.0659654 8.29,12.2059654 8.1,12.3759654 C7.9,12.5459654 7.81,12.7959654 7.81,13.1459654 C7.81,13.4659654 7.9,13.7159654 8.08,13.8859654 C8.26,14.0459654 8.54,14.1959654 8.91,14.3359654 Z M9.69,10.0959654 L9.69,10.7659654 C10.13,10.8059654 10.51,10.8959654 10.82,11.0359654 C11.14,11.1659654 11.42,11.3759654 11.65,11.6559654 C11.84,11.8659654 11.98,12.0759654 12.08,12.3059654 C12.18,12.5259654 12.23,12.7259654 12.23,12.9159654 C12.23,13.1159654 12.16,13.2959654 12.01,13.4459654 C11.86,13.5959654 11.67,13.6759654 11.46,13.6759654 C11.06,13.6759654 10.8,13.4559654 10.67,13.0159654 C10.54,12.5059654 10.21,12.1659654 9.69,11.9959654 L9.69,14.5659654 C10.2,14.7059654 10.61,14.8259654 10.91,14.9459654 C11.22,15.0659654 11.49,15.2259654 11.73,15.4459654 C11.98,15.6759654 12.18,15.9459654 12.32,16.2559654 C12.45,16.5759654 12.52,16.9159654 12.52,17.2959654 C12.52,17.7659654 12.41,18.2059654 12.19,18.6159654 C11.97,19.0259654 11.65,19.3659654 11.22,19.6159654 C10.79,19.8759654 10.28,20.0359654 9.69,20.0859654 L9.69,20.6759654 C9.69,20.9259654 9.67,21.0959654 9.62,21.2159654 C9.57,21.3259654 9.47,21.3759654 9.31,21.3759654 C9.16,21.3759654 9.06,21.3359654 9,21.2459654 C8.94,21.1559654 8.91,21.0159654 8.91,20.8259654 L8.91,20.0959654 C8.42,20.0459654 8,19.9259654 7.64,19.7559654 C7.28,19.5859654 6.98,19.3659654 6.74,19.1159654 C6.5,18.8559654 6.32,18.5859654 6.21,18.3059654 C6.09,18.0259654 6.03,17.7559654 6.03,17.4859654 C6.03,17.2859654 6.11,17.1159654 6.26,16.9559654 C6.42,16.7959654 6.61,16.7159654 6.84,16.7159654 C7.03,16.7159654 7.18,16.7559654 7.31,16.8459654 C7.44,16.9359654 7.53,17.0559654 7.58,17.2059654 C7.69,17.5459654 7.79,17.8059654 7.87,17.9859654 C7.95,18.1659654 8.07,18.3259654 8.24,18.4759654 C8.41,18.6259654 8.63,18.7359654 8.91,18.8159654 L8.91,15.9459654 C8.35,15.7859654 7.89,15.6159654 7.52,15.4359654 C7.15,15.2459654 6.85,14.9759654 6.62,14.6359654 C6.39,14.2859654 6.27,13.8359654 6.27,13.2959654 C6.27,12.5859654 6.5,12.0059654 6.95,11.5559654 C7.4,11.0959654 8.05,10.8359654 8.91,10.7659654 L8.91,10.1059654 C8.91,9.7659654 9.04,9.5859654 9.3,9.5859654 C9.56,9.5859654 9.69,9.7559654 9.69,10.0959654 L9.69,10.0959654 Z" id="Fill-3157"></path>
                <path d="M9.28,2.4059654 C9.13,2.4059654 9.02,2.4359654 8.97,2.4659654 L2.38,6.6159654 C2.2,6.7259654 2,7.0959654 2,7.3059654 L2,23.1759654 L16.55,23.1759654 L16.56,7.3059654 C16.56,7.0959654 16.35,6.7259654 16.18,6.6159654 L9.59,2.4659654 C9.54,2.4359654 9.42,2.4059654 9.28,2.4059654 Z M16.56,23.1759654 L16.56,24.1759654 L16.56,23.1759654 Z M16.56,25.1759654 L2,25.1759654 C0.9,25.1759654 0,24.2759654 0,23.1759654 L0,7.3059654 C0,6.4059654 0.55,5.4059654 1.31,4.9259654 L7.9,0.775965402 C8.66,0.295965402 9.89,0.295965402 10.66,0.775965402 L17.24,4.9259654 C18,5.4059654 18.56,6.4059654 18.56,7.3059654 L18.56,23.1759654 C18.56,24.2759654 17.66,25.1759654 16.56,25.1759654 L16.56,25.1759654 Z" id="Fill-3158"></path>
                <path d="M9.28,4.6459654 C8.52,4.6459654 7.9,5.2659654 7.91,6.0259654 C7.9,6.7759654 8.52,7.3959654 9.28,7.3959654 C10.04,7.3959654 10.65,6.7759654 10.65,6.0259654 C10.65,5.2659654 10.03,4.6459654 9.28,4.6459654" id="Fill-3159"></path>
                <path d="M10.27,6.5459654 C9.51,6.5459654 8.91,6.3259654 8.63,5.7959654 C8.49,5.5559654 8.58,5.2559654 8.82,5.1159654 C9.07,4.9859654 9.37,5.0759654 9.5,5.3159654 C9.71,5.6959654 11.44,5.7259654 13.86,4.3959654 C14.92,3.8159654 15.84,3.1159654 16.43,2.4359654 C16.94,1.8359654 17.07,1.3859654 16.98,1.2259654 C16.89,1.0559654 16.44,0.935965402 15.66,1.0459654 C14.77,1.1759654 13.69,1.5659654 12.63,2.1459654 C12.39,2.2759654 12.08,2.1959654 11.95,1.9459654 C11.82,1.7059654 11.91,1.4059654 12.15,1.2659654 C13.31,0.625965402 14.51,0.195965402 15.52,0.0559654023 C17.03,-0.164034598 17.62,0.305965402 17.86,0.745965402 C18.1,1.1759654 18.17,1.9359654 17.18,3.0859654 C16.52,3.8559654 15.51,4.6359654 14.34,5.2759654 C12.96,6.0259654 11.43,6.5459654 10.27,6.5459654" id="Fill-3160"></path>
            </g>
        </g>
    </g>
</svg>