<?xml version="1.0" encoding="UTF-8"?>
<svg width="25px" height="26px" viewBox="0 0 25 26" version="1.1" xmlns="http://www.w3.org/2000/svg" xmlns:xlink="http://www.w3.org/1999/xlink">
    <!-- Generator: Sketch 60.1 (88133) - https://sketch.com -->
    <title>product-detail</title>
    <desc>Created with Sketch.</desc>
    <g id="Page-1" stroke="none" stroke-width="1" fill="none" fill-rule="evenodd">
        <g id="CircleLineIcons-14" transform="translate(-1569.000000, -1557.000000)" fill="#000000">
            <g id="product-detail" transform="translate(1569.860000, 1557.750000)">
                <polyline id="Fill-2130" points="4.07 19.9 4.06 19.9 3.34 20.27 3.2 19.59 4.17 19.09 4.92 19.09 4.92 23.35 4.07 23.35 4.07 19.9"></polyline>
                <path d="M5.85,23.35 L5.85,22.77 L6.27,22.23 C6.82,21.53 7.28,20.94 7.28,20.33 C7.28,19.99 7.08,19.75 6.73,19.75 C6.46,19.75 6.25,19.87 6.1,19.97 L5.94,19.3 C6.13,19.17 6.5,19.04 6.89,19.04 C7.82,19.04 8.12,19.66 8.12,20.27 C8.12,21.07 7.62,21.71 7.13,22.28 L6.87,22.58 L6.87,22.59 L8.18,22.59 L8.18,23.35 L5.85,23.35" id="Fill-2131"></path>
                <path d="M8.75,22.53 C8.92,22.63 9.16,22.7 9.39,22.7 C9.81,22.7 10.04,22.44 10.04,22.08 C10.04,21.61 9.67,21.42 9.24,21.41 L9.12,21.41 L9.12,20.78 L9.21,20.78 C9.53,20.77 9.93,20.64 9.93,20.23 C9.93,19.92 9.74,19.74 9.44,19.74 C9.24,19.74 9.06,19.8 8.9,19.91 L8.78,19.26 C8.96,19.15 9.3,19.04 9.65,19.04 C10.4,19.04 10.78,19.52 10.78,20.07 C10.78,20.49 10.55,20.84 10.17,21.02 L10.17,21.03 C10.58,21.17 10.89,21.54 10.89,22.12 C10.89,22.76 10.39,23.4 9.47,23.4 C9.12,23.4 8.82,23.31 8.64,23.21 L8.75,22.53" id="Fill-2132"></path>
                <path d="M12.8,21.64 L12.8,20.77 C12.8,20.54 12.82,20.29 12.84,20.07 L12.82,20.07 C12.73,20.31 12.63,20.5 12.53,20.73 L12.07,21.63 L12.07,21.64 L12.8,21.64 Z M12.8,23.35 L12.8,22.33 L11.34,22.33 L11.34,21.74 L12.73,19.09 L13.56,19.09 L13.56,21.64 L13.98,21.64 L13.98,22.33 L13.56,22.33 L13.56,23.35 L12.8,23.35 L12.8,23.35 Z" id="Fill-2133"></path>
                <path d="M16.45,19.84 L15.32,19.84 L15.22,20.6 C15.26,20.59 15.3,20.59 15.35,20.59 C15.53,20.6 15.9,20.69 16.15,20.92 C16.39,21.15 16.52,21.47 16.52,21.9 C16.52,22.72 15.97,23.4 15.04,23.4 C14.73,23.4 14.41,23.32 14.24,23.23 L14.37,22.55 C14.53,22.63 14.74,22.7 14.98,22.7 C15.4,22.7 15.67,22.43 15.67,21.98 C15.67,21.4 15.24,21.21 14.75,21.21 C14.63,21.21 14.53,21.21 14.44,21.23 L14.68,19.09 L16.45,19.09 L16.45,19.84" id="Fill-2134"></path>
                <path d="M18.66,21.88 C18.65,21.53 18.54,21.18 18.26,21.18 C18.12,21.18 17.98,21.28 17.9,21.47 C17.89,21.52 17.87,21.64 17.87,21.85 C17.87,22.4 18.02,22.78 18.29,22.78 C18.57,22.78 18.66,22.4 18.66,21.88 Z M19.17,19.73 C19.06,19.74 18.95,19.75 18.81,19.78 C18.25,19.9 17.97,20.37 17.86,20.91 L17.89,20.91 C18.04,20.71 18.26,20.57 18.55,20.57 C19.12,20.57 19.51,21.09 19.51,21.88 C19.51,22.64 19.12,23.4 18.29,23.4 C17.49,23.4 16.99,22.7 16.99,21.64 C16.99,20.71 17.3,20.08 17.69,19.66 C17.97,19.35 18.39,19.15 18.74,19.08 C18.94,19.05 19.08,19.04 19.17,19.04 L19.17,19.73 L19.17,19.73 Z" id="Fill-2135"></path>
                <path d="M1,24.33 C0.45,24.33 0,23.88 0,23.33 L0,1 C0,0.44 0.45,-2.84217094e-14 1,-2.84217094e-14 C1.55,-2.84217094e-14 2,0.44 2,1 L2,23.33 C2,23.88 1.55,24.33 1,24.33" id="Fill-2136"></path>
                <path d="M4.57,17.08 C4.29,17.08 4.07,16.86 4.07,16.58 L4.07,1 C4.07,0.72 4.29,0.5 4.57,0.5 C4.85,0.5 5.07,0.72 5.07,1 L5.07,16.58 C5.07,16.86 4.85,17.08 4.57,17.08" id="Fill-2137"></path>
                <path d="M8.14,17.58 C7.58,17.58 7.14,17.13 7.14,16.58 L7.14,1 C7.14,0.44 7.58,-2.84217094e-14 8.14,-2.84217094e-14 C8.69,-2.84217094e-14 9.14,0.44 9.14,1 L9.14,16.58 C9.14,17.13 8.69,17.58 8.14,17.58" id="Fill-2138"></path>
                <path d="M11.71,17.58 C11.15,17.58 10.71,17.13 10.71,16.58 L10.71,1 C10.71,0.44 11.15,-2.84217094e-14 11.71,-2.84217094e-14 C12.26,-2.84217094e-14 12.71,0.44 12.71,1 L12.71,16.58 C12.71,17.13 12.26,17.58 11.71,17.58" id="Fill-2139"></path>
                <path d="M15.28,17.08 C15,17.08 14.78,16.86 14.78,16.58 L14.78,1 C14.78,0.72 15,0.5 15.28,0.5 C15.55,0.5 15.78,0.72 15.78,1 L15.78,16.58 C15.78,16.86 15.55,17.08 15.28,17.08" id="Fill-2140"></path>
                <path d="M18.84,17.58 C18.29,17.58 17.84,17.13 17.84,16.58 L17.84,1 C17.84,0.44 18.29,-2.84217094e-14 18.84,-2.84217094e-14 C19.4,-2.84217094e-14 19.84,0.44 19.84,1 L19.84,16.58 C19.84,17.13 19.4,17.58 18.84,17.58" id="Fill-2141"></path>
                <path d="M22.41,24.33 C21.86,24.33 21.41,23.88 21.41,23.33 L21.41,1 C21.41,0.44 21.86,-2.84217094e-14 22.41,-2.84217094e-14 C22.97,-2.84217094e-14 23.41,0.44 23.41,1 L23.41,23.33 C23.41,23.88 22.97,24.33 22.41,24.33" id="Fill-2142"></path>
            </g>
        </g>
    </g>
</svg>