<?xml version="1.0" encoding="UTF-8"?>
<svg width="27px" height="24px" viewBox="0 0 27 24" version="1.1" xmlns="http://www.w3.org/2000/svg" xmlns:xlink="http://www.w3.org/1999/xlink">
    <!-- Generator: Sketch 60.1 (88133) - https://sketch.com -->
    <title>product-listing</title>
    <desc>Created with Sketch.</desc>
    <g id="Page-1" stroke="none" stroke-width="1" fill="none" fill-rule="evenodd">
        <g id="CircleLineIcons-14" transform="translate(-1385.000000, -1558.000000)" fill="#000000">
            <g id="product-listing" transform="translate(1385.470000, 1558.210000)">
                <path d="M18.65,8.49 C19.01,8.49 19.34,8.68 19.52,8.99 C19.94,9.73 20.69,10.17 21.52,10.17 C22.73,10.17 23.73,9.23 23.83,8.05 L21.03,2 L4.36,2 L2.01,8.02 C2.1,9.22 3.1,10.17 4.32,10.17 C5.15,10.17 5.9,9.73 6.32,8.99 C6.49,8.68 6.83,8.49 7.18,8.49 L7.19,8.49 C7.54,8.49 7.87,8.68 8.05,8.99 C8.47,9.71 9.24,10.17 10.05,10.17 C10.88,10.17 11.63,9.73 12.05,8.99 C12.23,8.68 12.56,8.49 12.92,8.49 C13.28,8.49 13.61,8.68 13.79,8.99 C14.2,9.71 14.97,10.17 15.79,10.17 C16.62,10.17 17.36,9.73 17.79,8.99 C17.96,8.68 18.29,8.49 18.65,8.49 Z M21.52,12.17 C20.45,12.17 19.44,11.76 18.66,11.06 C17.87,11.76 16.86,12.17 15.79,12.17 C14.72,12.17 13.7,11.76 12.92,11.06 C12.14,11.76 11.12,12.17 10.05,12.17 C8.99,12.17 7.97,11.76 7.19,11.06 C6.41,11.76 5.39,12.17 4.32,12.17 C1.94,12.17 1.13686838e-13,10.23 1.13686838e-13,7.85 C1.13686838e-13,7.73 0.03,7.6 0.07,7.49 L2.74,0.63 C2.89,0.25 3.26,2.84217094e-14 3.67,2.84217094e-14 L21.67,2.84217094e-14 C22.06,2.84217094e-14 22.42,0.22 22.58,0.58 L25.75,7.43 C25.81,7.56 25.84,7.71 25.84,7.85 C25.84,10.23 23.9,12.17 21.52,12.17 L21.52,12.17 Z" id="Fill-2983"></path>
                <path d="M22.09,23.48 L3.76,23.48 C3.2,23.48 2.76,23.03 2.76,22.48 L2.76,11.48 C2.76,10.92 3.2,10.48 3.76,10.48 C4.31,10.48 4.76,10.92 4.76,11.48 L4.76,21.48 L21.09,21.48 L21.09,11.48 C21.09,10.92 21.53,10.48 22.09,10.48 C22.64,10.48 23.09,10.92 23.09,11.48 L23.09,22.48 C23.09,23.03 22.64,23.48 22.09,23.48" id="Fill-2984"></path>
                <path d="M7.58,21.48 L18.24,21.48 L18.24,15.14 L7.58,15.14 L7.58,21.48 Z M18.74,22.48 L7.08,22.48 C6.8,22.48 6.58,22.25 6.58,21.98 L6.58,14.64 C6.58,14.37 6.8,14.14 7.08,14.14 L18.74,14.14 C19.02,14.14 19.24,14.37 19.24,14.64 L19.24,21.98 C19.24,22.25 19.02,22.48 18.74,22.48 L18.74,22.48 Z" id="Fill-2985"></path>
                <path d="M22.59,4.14 L3.34,4.14 C3.07,4.14 2.84,3.92 2.84,3.64 C2.84,3.37 3.07,3.14 3.34,3.14 L22.59,3.14 C22.87,3.14 23.09,3.37 23.09,3.64 C23.09,3.92 22.87,4.14 22.59,4.14" id="Fill-2986"></path>
            </g>
        </g>
    </g>
</svg>