<?xml version="1.0" encoding="UTF-8"?>
<svg width="22px" height="24px" viewBox="0 0 22 24" version="1.1" xmlns="http://www.w3.org/2000/svg" xmlns:xlink="http://www.w3.org/1999/xlink">
    <!-- Generator: Sketch 60.1 (88133) - https://sketch.com -->
    <title>progress</title>
    <desc>Created with Sketch.</desc>
    <g id="Page-1" stroke="none" stroke-width="1" fill="none" fill-rule="evenodd">
        <g id="CircleLineIcons-14" transform="translate(-1877.000000, -1558.000000)" fill="#000000">
            <g id="progress" transform="translate(1877.480000, 1558.241036)">
                <path d="M3.43,23.4189644 C3.24,23.4189644 3.05,23.3589644 2.88,23.2489644 C2.42,22.9389644 2.3,22.3189644 2.6,21.8589644 L16.77,0.44896438 C17.07,-0.0110356203 17.69,-0.14103562 18.15,0.16896438 C18.61,0.46896438 18.74,1.08896438 18.44,1.54896438 L4.27,22.9689644 C4.08,23.2589644 3.76,23.4189644 3.43,23.4189644" id="Fill-2426"></path>
                <path d="M4.08,2.26896438 C2.93,2.26896438 2,3.19896438 2,4.34896438 L2,8.55896438 C2,9.70896438 2.93,10.6389644 4.08,10.6389644 C5.23,10.6389644 6.16,9.70896438 6.16,8.55896438 L6.16,4.34896438 C6.16,3.19896438 5.23,2.26896438 4.08,2.26896438 Z M4.08,12.6389644 C1.83,12.6389644 -1.13686838e-13,10.8089644 -1.13686838e-13,8.55896438 L-1.13686838e-13,4.34896438 C-1.13686838e-13,2.09896438 1.83,0.26896438 4.08,0.26896438 C6.33,0.26896438 8.16,2.09896438 8.16,4.34896438 L8.16,8.55896438 C8.16,10.8089644 6.33,12.6389644 4.08,12.6389644 L4.08,12.6389644 Z" id="Fill-2427"></path>
                <path d="M16.95,12.7689644 C15.81,12.7689644 14.87,13.6989644 14.87,14.8489644 L14.87,19.0589644 C14.87,20.2089644 15.81,21.1389644 16.95,21.1389644 C18.1,21.1389644 19.04,20.2089644 19.04,19.0589644 L19.04,14.8489644 C19.04,13.6989644 18.1,12.7689644 16.95,12.7689644 Z M16.95,23.1389644 C14.7,23.1389644 12.87,21.3089644 12.87,19.0589644 L12.87,14.8489644 C12.87,12.5989644 14.7,10.7689644 16.95,10.7689644 C19.21,10.7689644 21.04,12.5989644 21.04,14.8489644 L21.04,19.0589644 C21.04,21.3089644 19.21,23.1389644 16.95,23.1389644 L16.95,23.1389644 Z" id="Fill-2428"></path>
            </g>
        </g>
    </g>
</svg>