<?xml version="1.0" encoding="UTF-8"?>
<svg width="25px" height="25px" viewBox="0 0 25 25" version="1.1" xmlns="http://www.w3.org/2000/svg" xmlns:xlink="http://www.w3.org/1999/xlink">
    <!-- Generator: Sketch 60.1 (88133) - https://sketch.com -->
    <title>rating</title>
    <desc>Created with Sketch.</desc>
    <g id="Page-1" stroke="none" stroke-width="1" fill="none" fill-rule="evenodd">
        <g id="CircleLineIcons-14" transform="translate(-1569.000000, -1248.000000)" fill="#000000">
            <g id="rating" transform="translate(1569.747767, 1248.240000)">
                <path d="M2.24223339,11.87 L5.21223339,21.95 L9.30223339,20.75 L6.33223339,10.67 L2.24223339,11.87 Z M4.53223339,24.19 C4.10223339,24.19 3.70223339,23.91 3.57223339,23.48 L0.042233387,11.48 C-0.117766613,10.95 0.192233387,10.39 0.712233387,10.24 L6.72223339,8.46 C6.98223339,8.39 7.25223339,8.42 7.49223339,8.54 C7.72223339,8.67 7.89223339,8.88 7.97223339,9.14 L11.5022334,21.14 C11.5822334,21.4 11.5522334,21.67 11.4222334,21.9 C11.3022334,22.14 11.0822334,22.31 10.8322334,22.38 L4.81223339,24.15 C4.72223339,24.18 4.63223339,24.19 4.53223339,24.19 L4.53223339,24.19 Z" id="Fill-1550"></path>
                <path d="M11.4122334,16.94 C11.8922334,16.94 12.4222334,16.97 12.9922334,17.02 L14.5522334,17.15 C15.6322334,17.24 16.5822334,17.32 17.1922334,17.4 C17.3622334,17.42 17.5522334,17.44 17.7422334,17.44 C18.4222334,17.44 18.6922334,17.27 18.7222334,17.23 C18.7522334,17.14 18.7822334,17.03 18.7922334,16.92 C18.8322334,16.54 19.0922334,16.22 19.4522334,16.09 C19.8322334,15.96 20.0822334,15.63 20.1022334,15.25 C20.1122334,15.17 20.1022334,15.11 20.0922334,15.04 C20.0122334,14.62 20.2122334,14.21 20.5722334,13.99 C20.8422334,13.83 21.0222334,13.55 21.0422334,13.25 C21.0422334,13.1 21.0222334,12.95 20.9622334,12.81 C20.7822334,12.42 20.8822334,11.96 21.2022334,11.67 C21.4822334,11.42 21.6422334,11.08 21.6422334,10.71 C21.6422334,9.99 21.0522334,9.41 20.3322334,9.41 C20.3322334,9.41 20.1622334,9.41 19.8922334,9.41 C15.5122334,9.41 14.7322334,8.61 14.4722334,8.34 C14.1822334,8.05 14.0322334,7.68 14.0422334,7.3 C14.0522334,6.98 14.0622334,6.63 14.0922334,6.23 C14.1222334,6.01 14.1522334,5.83 14.1722334,5.67 C14.2122334,5.43 14.2422334,5.21 14.2622334,5.01 C14.4122334,3.14 13.9222334,2.19 13.6822334,2.01 C13.5422334,2.01 13.3722334,2.05 13.2322334,2.08 C13.2822334,2.78 13.3422334,4.44 12.8822334,5.95 C12.8622334,6.01 12.8322334,6.07 12.8022334,6.13 C12.0322334,7.54 9.98223339,9.84 8.50223339,11.15 L10.2222334,17 C10.5922334,16.96 10.9922334,16.94 11.4122334,16.94 Z M17.7422334,19.44 C17.4622334,19.44 17.1922334,19.42 16.9422334,19.39 C16.3422334,19.31 15.4322334,19.23 14.3822334,19.14 L12.8122334,19.01 C11.1622334,18.86 10.1922334,18.99 9.74223339,19.1 C9.23223339,19.22 8.70223339,18.92 8.55223339,18.41 L6.40223339,11.09 C6.28223339,10.71 6.42223339,10.28 6.73223339,10.03 C8.00223339,9.02 10.2322334,6.61 11.0022334,5.26 C11.4222334,3.79 11.2122334,2.01 11.2122334,1.99 C11.1622334,1.55 11.3022334,1.12 11.5922334,0.79 C12.2822334,0.02 13.6022334,5.68434189e-14 13.7522334,5.68434189e-14 C14.2722334,5.68434189e-14 14.7822334,0.25 15.1922334,0.69 C16.0222334,1.59 16.4122334,3.22 16.2522334,5.17 C16.2322334,5.42 16.1922334,5.68 16.1522334,5.96 L16.0822334,6.43 C16.0722334,6.62 16.0622334,6.82 16.0522334,7.01 C16.5222334,7.19 17.7822334,7.41 19.8922334,7.41 L20.3122334,7.41 C22.1522334,7.41 23.6422334,8.89 23.6422334,10.71 C23.6422334,11.43 23.4122334,12.1 22.9922334,12.66 C23.0322334,12.89 23.0522334,13.13 23.0322334,13.36 C22.9922334,14.12 22.6522334,14.82 22.1022334,15.33 C22.1022334,15.35 22.1022334,15.36 22.1022334,15.38 C22.0422334,16.35 21.5022334,17.22 20.6622334,17.72 C20.6422334,17.79 20.6222334,17.86 20.5922334,17.93 C20.3822334,18.5 19.7322334,19.44 17.7422334,19.44 L17.7422334,19.44 Z" id="Fill-1551"></path>
            </g>
        </g>
    </g>
</svg>