<?xml version="1.0" encoding="UTF-8"?>
<svg width="20px" height="25px" viewBox="0 0 20 25" version="1.1" xmlns="http://www.w3.org/2000/svg" xmlns:xlink="http://www.w3.org/1999/xlink">
    <!-- Generator: Sketch 60.1 (88133) - https://sketch.com -->
    <title>reading-indicator</title>
    <desc>Created with Sketch.</desc>
    <g id="Page-1" stroke="none" stroke-width="1" fill="none" fill-rule="evenodd">
        <g id="CircleLineIcons-14" transform="translate(-653.000000, -1124.000000)" fill="#000000">
            <g id="reading-indicator" transform="translate(653.933000, 1124.270000)">
                <path d="M16.22,24.54 L2.275,24.54 C1.02,24.54 0,23.52 0,22.26 L0,3.55 C0,3 0.447,2.55 1,2.55 C1.552,2.55 2,3 2,3.55 L2,22.26 C2,22.42 2.124,22.54 2.275,22.54 L16.22,22.54 C16.375,22.54 16.5,22.42 16.5,22.26 L16.5,6.46 C16.5,6.31 16.375,6.18 16.22,6.18 C15.668,6.18 15.22,5.73 15.22,5.18 C15.22,4.63 15.668,4.18 16.22,4.18 C17.477,4.18 18.5,5.2 18.5,6.46 L18.5,22.26 C18.5,23.52 17.477,24.54 16.22,24.54" id="Fill-3237"></path>
                <path d="M16.027,6.18 L3.089,6.18 C1.385,6.18 0,4.79 0,3.09 C0,1.38 1.385,-5.68434189e-14 3.089,-5.68434189e-14 L17.5,-5.68434189e-14 C18.052,-5.68434189e-14 18.5,0.44 18.5,1 C18.5,1.55 18.052,2 17.5,2 L3.089,2 C2.489,2 2,2.49 2,3.09 C2,3.69 2.489,4.18 3.089,4.18 L16.027,4.18 C16.58,4.18 17.027,4.63 17.027,5.18 C17.027,5.73 16.58,6.18 16.027,6.18" id="Fill-3238"></path>
                <path d="M9.203,16.99 C9.066,16.99 8.929,16.96 8.801,16.9 L7.004,16.12 L5.206,16.9 C4.899,17.04 4.542,17.01 4.257,16.83 C3.974,16.64 3.804,16.33 3.804,15.99 L3.804,6.16 C3.804,5.6 4.252,5.16 4.804,5.16 C5.357,5.16 5.804,5.6 5.804,6.16 L5.804,14.46 L6.602,14.11 C6.858,14 7.149,14 7.405,14.11 L8.203,14.46 L8.203,6.16 C8.203,5.6 8.65,5.16 9.203,5.16 C9.755,5.16 10.203,5.6 10.203,6.16 L10.203,15.99 C10.203,16.33 10.033,16.64 9.75,16.83 C9.585,16.93 9.394,16.99 9.203,16.99" id="Fill-3239"></path>
            </g>
        </g>
    </g>
</svg>