<?xml version="1.0" encoding="UTF-8"?>
<svg width="26px" height="25px" viewBox="0 0 26 25" version="1.1" xmlns="http://www.w3.org/2000/svg" xmlns:xlink="http://www.w3.org/1999/xlink">
    <!-- Generator: Sketch 60.1 (88133) - https://sketch.com -->
    <title>resource</title>
    <desc>Created with Sketch.</desc>
    <g id="Page-1" stroke="none" stroke-width="1" fill="none" fill-rule="evenodd">
        <g id="CircleLineIcons-14" transform="translate(-834.000000, -1124.000000)" fill="#000000">
            <g id="resource" transform="translate(834.425000, 1124.867801)">
                <path d="M18.168,23.3221985 L4,23.3221985 C1.794,23.3221985 5.68434189e-14,21.5321985 5.68434189e-14,19.3221985 L5.68434189e-14,18.1521985 C5.68434189e-14,15.9521985 1.794,14.1521985 4,14.1521985 L18.168,14.1521985 C18.721,14.1521985 19.168,14.6021985 19.168,15.1521985 C19.168,15.7121985 18.721,16.1521985 18.168,16.1521985 L4,16.1521985 C2.897,16.1521985 2,17.0521985 2,18.1521985 L2,19.3221985 C2,20.4221985 2.897,21.3221985 4,21.3221985 L18.168,21.3221985 C18.721,21.3221985 19.168,21.7721985 19.168,22.3221985 C19.168,22.8721985 18.721,23.3221985 18.168,23.3221985" id="Fill-3252"></path>
                <path d="M1.352,17.7221985 C1.133,17.7221985 0.911,17.6421985 0.726,17.5021985 C0.296,17.1521985 0.228,16.5221985 0.574,16.0921985 L2.15,14.1321985 C2.498,13.7021985 3.127,13.6321985 3.556,13.9821985 C3.987,14.3321985 4.054,14.9621985 3.709,15.3921985 L2.133,17.3421985 C1.934,17.5921985 1.645,17.7221985 1.352,17.7221985" id="Fill-3253"></path>
                <path d="M18.415,23.3421985 C18.195,23.3421985 17.973,23.2721985 17.789,23.1221985 C17.358,22.7721985 17.291,22.1421985 17.638,21.7121985 L22.964,15.1021985 C23.309,14.6721985 23.939,14.6021985 24.369,14.9521985 C24.8,15.3021985 24.867,15.9321985 24.52,16.3621985 L19.194,22.9721985 C18.997,23.2121985 18.708,23.3421985 18.415,23.3421985" id="Fill-3254"></path>
                <path d="M18.167,16.1521985 C17.94,16.1521985 17.713,16.0821985 17.525,15.9221985 C17.102,15.5721985 17.047,14.9321985 17.401,14.5121985 L22.975,7.86219855 C23.331,7.44219855 23.962,7.38219855 24.385,7.73219855 C24.807,8.09219855 24.863,8.72219855 24.509,9.14219855 L18.934,15.8021985 C18.736,16.0321985 18.453,16.1521985 18.167,16.1521985" id="Fill-3255"></path>
                <path d="M17.478,18.3021985 L3.853,18.3021985 C3.577,18.3021985 3.353,18.0821985 3.353,17.8021985 C3.353,17.5221985 3.577,17.3021985 3.853,17.3021985 L17.478,17.3021985 C17.755,17.3021985 17.978,17.5221985 17.978,17.8021985 C17.978,18.0821985 17.755,18.3021985 17.478,18.3021985" id="Fill-3256"></path>
                <path d="M17.478,20.1521985 L3.853,20.1521985 C3.577,20.1521985 3.353,19.9321985 3.353,19.6521985 C3.353,19.3821985 3.577,19.1521985 3.853,19.1521985 L17.478,19.1521985 C17.755,19.1521985 17.978,19.3821985 17.978,19.6521985 C17.978,19.9321985 17.755,20.1521985 17.478,20.1521985" id="Fill-3257"></path>
                <path d="M18.168,15.8221985 L4,15.8221985 C1.794,15.8221985 5.68434189e-14,14.0321985 5.68434189e-14,11.8221985 L5.68434189e-14,10.6521985 C5.68434189e-14,8.45219855 1.794,6.65219855 4,6.65219855 L18.168,6.65219855 C18.721,6.65219855 19.168,7.10219855 19.168,7.65219855 C19.168,8.21219855 18.721,8.65219855 18.168,8.65219855 L4,8.65219855 C2.897,8.65219855 2,9.55219855 2,10.6521985 L2,11.8221985 C2,12.9221985 2.897,13.8221985 4,13.8221985 L18.168,13.8221985 C18.721,13.8221985 19.168,14.2721985 19.168,14.8221985 C19.168,15.3721985 18.721,15.8221985 18.168,15.8221985" id="Fill-3258"></path>
                <path d="M6.628,3.69219855 C6.418,3.69219855 6.207,3.62219855 6.026,3.48219855 C5.586,3.15219855 5.498,2.53219855 5.831,2.08219855 C6.562,1.12219855 7.491,-0.0578014506 9.374,0.00219854938 L23.742,0.00219854938 C24.295,0.00219854938 24.742,0.452198549 24.742,1.00219855 C24.742,1.55219855 24.295,2.00219855 23.742,2.00219855 L9.326,2.00219855 C8.573,1.96219855 8.253,2.19219855 7.427,3.29219855 C7.23,3.55219855 6.931,3.69219855 6.628,3.69219855" id="Fill-3259"></path>
                <path d="M1.352,10.2221985 C1.133,10.2221985 0.911,10.1421985 0.726,10.0021985 C0.296,9.65219855 0.228,9.02219855 0.575,8.59219855 L5.901,1.98219855 C6.247,1.55219855 6.877,1.48219855 7.306,1.83219855 C7.737,2.17219855 7.804,2.80219855 7.458,3.23219855 L2.132,9.84219855 C1.934,10.0921985 1.645,10.2221985 1.352,10.2221985" id="Fill-3260"></path>
                <path d="M18.415,15.8421985 C18.195,15.8421985 17.973,15.7721985 17.789,15.6221985 C17.358,15.2721985 17.291,14.6421985 17.638,14.2121985 L22.964,7.60219855 C23.309,7.17219855 23.939,7.10219855 24.369,7.45219855 C24.8,7.80219855 24.867,8.43219855 24.52,8.86219855 L19.194,15.4721985 C18.997,15.7121985 18.708,15.8421985 18.415,15.8421985" id="Fill-3261"></path>
                <path d="M18.167,8.65219855 C17.94,8.65219855 17.713,8.58219855 17.525,8.42219855 C17.102,8.07219855 17.047,7.43219855 17.401,7.01219855 L22.975,0.362198549 C23.331,-0.0578014506 23.962,-0.117801451 24.385,0.232198549 C24.807,0.592198549 24.863,1.22219855 24.509,1.64219855 L18.934,8.30219855 C18.736,8.53219855 18.453,8.65219855 18.167,8.65219855" id="Fill-3262"></path>
                <path d="M17.478,10.8021985 L3.853,10.8021985 C3.577,10.8021985 3.353,10.5821985 3.353,10.3021985 C3.353,10.0221985 3.577,9.80219855 3.853,9.80219855 L17.478,9.80219855 C17.755,9.80219855 17.978,10.0221985 17.978,10.3021985 C17.978,10.5821985 17.755,10.8021985 17.478,10.8021985" id="Fill-3263"></path>
                <path d="M17.478,12.6521985 L3.853,12.6521985 C3.577,12.6521985 3.353,12.4321985 3.353,12.1521985 C3.353,11.8821985 3.577,11.6521985 3.853,11.6521985 L17.478,11.6521985 C17.755,11.6521985 17.978,11.8821985 17.978,12.1521985 C17.978,12.4321985 17.755,12.6521985 17.478,12.6521985" id="Fill-3264"></path>
            </g>
        </g>
    </g>
</svg>