<?xml version="1.0" encoding="UTF-8"?>
<svg width="23px" height="20px" viewBox="0 0 23 20" version="1.1" xmlns="http://www.w3.org/2000/svg" xmlns:xlink="http://www.w3.org/1999/xlink">
    <!-- Generator: Sketch 60.1 (88133) - https://sketch.com -->
    <title>schedule</title>
    <desc>Created with Sketch.</desc>
    <g id="Page-1" stroke="none" stroke-width="1" fill="none" fill-rule="evenodd">
        <g id="CircleLineIcons-14" transform="translate(-1019.000000, -941.000000)" fill="#000000">
            <g id="schedule" transform="translate(1019.210000, 940.971000)">
                <path d="M2,17.999 L20.53,17.999 L20.53,3.667 L2,3.667 L2,17.999 Z M21.53,19.999 L1,19.999 C0.45,19.999 0,19.551 0,18.999 L0,2.667 C0,2.114 0.45,1.667 1,1.667 L21.53,1.667 C22.08,1.667 22.53,2.114 22.53,2.667 L22.53,18.999 C22.53,19.551 22.08,19.999 21.53,19.999 L21.53,19.999 Z" id="Fill-2880"></path>
                <path d="M17.69,5.333 C17.14,5.333 16.69,4.885 16.69,4.333 L16.69,1 C16.69,0.447 17.14,0 17.69,0 C18.25,0 18.69,0.447 18.69,1 L18.69,4.333 C18.69,4.885 18.25,5.333 17.69,5.333" id="Fill-2881"></path>
                <path d="M4.94,5.333 C4.39,5.333 3.94,4.885 3.94,4.333 L3.94,1 C3.94,0.447 4.39,0 4.94,0 C5.5,0 5.94,0.447 5.94,1 L5.94,4.333 C5.94,4.885 5.5,5.333 4.94,5.333" id="Fill-2882"></path>
                <path d="M21.47,8.569 L1.14,8.569 C0.86,8.569 0.64,8.345 0.64,8.069 C0.64,7.793 0.86,7.569 1.14,7.569 L21.47,7.569 C21.75,7.569 21.97,7.793 21.97,8.069 C21.97,8.345 21.75,8.569 21.47,8.569" id="Fill-2883"></path>
                <polygon id="Fill-2884" points="3.74 12.539 5.68 12.539 5.68 10.599 3.74 10.599"></polygon>
                <polygon id="Fill-2885" points="7.09 12.539 9.03 12.539 9.03 10.599 7.09 10.599"></polygon>
                <polygon id="Fill-2886" points="10.45 12.539 12.39 12.539 12.39 10.599 10.45 10.599"></polygon>
                <polygon id="Fill-2887" points="13.81 12.539 15.75 12.539 15.75 10.599 13.81 10.599"></polygon>
                <polygon id="Fill-2888" points="17.17 12.539 19.11 12.539 19.11 10.599 17.17 10.599"></polygon>
                <polygon id="Fill-2889" points="3.74 15.655 5.68 15.655 5.68 13.716 3.74 13.716"></polygon>
                <polygon id="Fill-2890" points="7.09 15.655 9.03 15.655 9.03 13.716 7.09 13.716"></polygon>
                <polygon id="Fill-2891" points="10.45 15.655 12.39 15.655 12.39 13.716 10.45 13.716"></polygon>
                <polygon id="Fill-2892" points="13.81 15.655 15.75 15.655 15.75 13.716 13.81 13.716"></polygon>
                <polygon id="Fill-2893" points="17.17 15.655 19.11 15.655 19.11 13.716 17.17 13.716"></polygon>
            </g>
        </g>
    </g>
</svg>