<?xml version="1.0" encoding="UTF-8"?>
<svg width="24px" height="24px" viewBox="0 0 24 24" version="1.1" xmlns="http://www.w3.org/2000/svg" xmlns:xlink="http://www.w3.org/1999/xlink">
    <!-- Generator: Sketch 60.1 (88133) - https://sketch.com -->
    <title>search</title>
    <desc>Created with Sketch.</desc>
    <g id="Page-1" stroke="none" stroke-width="1" fill="none" fill-rule="evenodd">
        <g id="CircleLineIcons-14" transform="translate(-406.000000, -691.000000)" fill="#000000">
            <g id="search" transform="translate(406.743000, 691.752000)">
                <path d="M9.969,2 C5.576,2.001 2.002,5.577 2,9.972 C2.002,14.363 5.575,17.936 9.967,17.936 C14.362,17.936 17.938,14.362 17.938,9.97 C17.936,5.575 14.361,2 9.969,2 Z M9.967,19.936 C4.474,19.936 0.002,15.467 -1.77635684e-15,9.972 C0.002,4.475 4.474,0.001 9.969,1.77635684e-15 C15.463,1.77635684e-15 19.936,4.473 19.938,9.97 C19.938,15.466 15.465,19.936 9.967,19.936 L9.967,19.936 Z" id="Fill-1483"></path>
                <path d="M4.361,9.967 L3.361,9.967 C3.363,6.324 6.327,3.36 9.969,3.36 L9.969,4.36 C6.879,4.36 4.363,6.876 4.361,9.967" id="Fill-1484"></path>
                <path d="M21.846,23.232 C21.59,23.232 21.334,23.135 21.139,22.939 L15.57,17.372 C15.18,16.981 15.18,16.349 15.57,15.958 C15.961,15.567 16.594,15.567 16.985,15.958 L22.553,21.525 C22.944,21.916 22.944,22.549 22.553,22.939 C22.358,23.135 22.102,23.232 21.846,23.232" id="Fill-1485"></path>
            </g>
        </g>
    </g>
</svg>