<?xml version="1.0" encoding="UTF-8"?>
<svg width="25px" height="24px" viewBox="0 0 25 24" version="1.1" xmlns="http://www.w3.org/2000/svg" xmlns:xlink="http://www.w3.org/1999/xlink">
    <!-- Generator: Sketch 60.1 (88133) - https://sketch.com -->
    <title>section-settings</title>
    <desc>Created with Sketch.</desc>
    <g id="Page-1" stroke="none" stroke-width="1" fill="none" fill-rule="evenodd">
        <g id="CircleLineIcons-14" transform="translate(-1263.000000, -877.000000)" fill="#000000">
            <g id="section-settings" transform="translate(1263.970000, 877.300000)">
                <path d="M11.75,9.361 C10.43,9.361 9.36,10.432 9.36,11.75 C9.36,13.067 10.43,14.138 11.75,14.138 C13.07,14.138 14.14,13.067 14.14,11.75 C14.14,10.432 13.07,9.361 11.75,9.361 Z M11.75,16.138 C9.33,16.138 7.36,14.17 7.36,11.75 C7.36,9.33 9.33,7.361 11.75,7.361 C14.17,7.361 16.14,9.33 16.14,11.75 C16.14,14.17 14.17,16.138 11.75,16.138 Z M10.76,21.5 L12.74,21.5 L12.74,20.137 C12.74,19.328 13.32,18.523 14.08,18.265 L14.77,17.978 C14.96,17.881 15.26,17.812 15.56,17.812 C16.11,17.812 16.62,18.019 16.98,18.379 L17.95,19.344 L19.34,17.947 L18.38,16.983 C17.8,16.409 17.65,15.431 18.01,14.707 L18.29,14.019 C18.52,13.317 19.32,12.736 20.14,12.736 L21.5,12.736 L21.5,10.763 L20.14,10.763 C19.32,10.763 18.52,10.182 18.26,9.412 L17.98,8.729 C17.65,8.071 17.8,7.094 18.37,6.52 L19.34,5.554 L17.95,4.157 L16.98,5.122 C16.42,5.684 15.42,5.846 14.7,5.492 L14.02,5.211 C13.32,4.978 12.74,4.175 12.74,3.364 L12.74,2 L10.76,2 L10.76,3.364 C10.76,4.176 10.18,4.98 9.41,5.236 L8.73,5.521 C8.54,5.62 8.24,5.687 7.94,5.687 C7.39,5.688 6.87,5.481 6.52,5.121 L5.55,4.158 L4.16,5.554 L5.12,6.517 C5.7,7.094 5.85,8.071 5.49,8.794 L5.21,9.478 C4.98,10.184 4.17,10.763 3.36,10.763 L2,10.763 L2,12.736 L3.36,12.736 C4.17,12.736 4.98,13.315 5.24,14.083 L5.52,14.773 C5.85,15.431 5.7,16.409 5.12,16.982 L4.16,17.947 L5.55,19.343 L6.52,18.379 C7.07,17.819 8.08,17.652 8.79,18.009 L9.48,18.288 C10.2,18.526 10.76,19.313 10.76,20.137 L10.76,21.5 Z M13.03,23.5 L10.46,23.5 C9.53,23.5 8.76,22.737 8.76,21.799 L8.76,20.137 L7.97,19.828 L6.76,20.969 C6.11,21.609 4.99,21.609 4.35,20.969 L2.53,19.149 C2.21,18.832 2.03,18.403 2.03,17.947 C2.03,17.491 2.21,17.062 2.54,16.742 L3.71,15.569 L3.36,14.781 L1.7,14.736 C0.76,14.736 0,13.973 0,13.036 L0,10.465 C0,9.526 0.76,8.763 1.7,8.763 L3.36,8.763 L3.67,7.968 L2.53,6.756 C2.21,6.438 2.03,6.01 2.03,5.554 C2.03,5.097 2.21,4.669 2.54,4.348 L4.35,2.532 C4.99,1.891 6.12,1.89 6.76,2.533 L7.93,3.708 L8.71,3.363 L8.76,1.701 C8.76,0.763 9.53,0 10.46,0 L13.03,0 C13.97,0 14.74,0.763 14.74,1.701 L14.74,3.364 L15.53,3.674 L16.74,2.532 C17.07,2.211 17.49,2.035 17.95,2.035 C18.4,2.035 18.83,2.211 19.15,2.531 L20.97,4.351 C21.29,4.669 21.46,5.097 21.46,5.554 C21.46,6.01 21.29,6.438 20.96,6.759 L19.79,7.931 L20.14,8.717 L21.8,8.763 C22.74,8.763 23.5,9.526 23.5,10.465 L23.5,13.036 C23.5,13.973 22.74,14.736 21.8,14.736 L20.14,14.736 L19.83,15.535 L20.97,16.745 C21.29,17.062 21.46,17.491 21.46,17.947 C21.46,18.403 21.29,18.832 20.96,19.152 L19.15,20.968 C18.5,21.612 17.39,21.608 16.75,20.971 L15.57,19.793 L14.78,20.138 L14.74,21.799 C14.74,22.737 13.97,23.5 13.03,23.5 L13.03,23.5 Z" id="Fill-1701"></path>
            </g>
        </g>
    </g>
</svg>