<?xml version="1.0" encoding="UTF-8"?>
<svg width="25px" height="24px" viewBox="0 0 25 24" version="1.1" xmlns="http://www.w3.org/2000/svg" xmlns:xlink="http://www.w3.org/1999/xlink">
    <!-- Generator: Sketch 60.1 (88133) - https://sketch.com -->
    <title>social</title>
    <desc>Created with Sketch.</desc>
    <g id="Page-1" stroke="none" stroke-width="1" fill="none" fill-rule="evenodd">
        <g id="CircleLineIcons-14" transform="translate(-1324.000000, -1496.000000)" fill="#000000">
            <g id="social" transform="translate(1324.400000, 1496.190000)">
                <path d="M19.68,15.13 C19.62,15.13 19.55,15.12 19.5,15.1 C16.2,13.83 12.6,13.4 9.09,13.86 C8.82,13.89 8.56,13.71 8.53,13.43 C8.49,13.16 8.69,12.91 8.96,12.87 C12.64,12.39 16.4,12.83 19.85,14.16 C20.11,14.26 20.24,14.55 20.14,14.81 C20.06,15.01 19.88,15.13 19.68,15.13" id="Fill-3049"></path>
                <path d="M1.71,16.2 C1.53,16.2 1.36,16.11 1.27,15.94 C1.14,15.69 1.23,15.39 1.48,15.26 C2.28,14.84 3.12,14.46 3.97,14.13 C4.23,14.03 4.52,14.16 4.61,14.42 C4.71,14.68 4.58,14.97 4.33,15.07 C3.51,15.38 2.71,15.74 1.95,16.14 C1.87,16.19 1.79,16.2 1.71,16.2" id="Fill-3050"></path>
                <path d="M14.98,22.15 L14.98,22.15 C14.7,22.15 14.48,21.92 14.48,21.65 C14.5,14.61 11.05,8.04 5.25,4.07 C5.02,3.92 4.96,3.6 5.12,3.38 C5.28,3.15 5.59,3.09 5.81,3.25 C11.89,7.41 15.5,14.29 15.4800827,21.65 C15.4800827,21.93 15.26,22.15 14.98,22.15" id="Fill-3051"></path>
                <path d="M13.73,6.91 C13.64,6.91 13.54,6.88 13.45,6.83 C11.4,5.44 9.61,3.74 8.12,1.76 C7.95,1.53 8,1.22 8.22,1.06 C8.44,0.89 8.75,0.93 8.92,1.15 C10.34,3.05 12.05,4.68 14.01,6 C14.24,6.15 14.3,6.46 14.15,6.69 C14.05,6.83 13.89,6.91 13.73,6.91" id="Fill-3052"></path>
                <path d="M22.63,10.38 C22.6,10.38 22.57,10.38 22.55,10.37 C20.9,10.12 19.27,9.68 17.71,9.07 C17.45,8.97 17.33,8.68 17.43,8.42 C17.53,8.16 17.82,8.03 18.08,8.14 C19.57,8.73 21.12,9.14 22.7,9.38 C22.97,9.42 23.16,9.68 23.12,9.95 C23.08,10.2 22.87,10.38 22.63,10.38" id="Fill-3053"></path>
                <path d="M15.78,5.7 C14.77,5.7 13.95,6.52 13.95,7.53 C13.95,8.54 14.77,9.36 15.78,9.36 C16.79,9.36 17.61,8.54 17.61,7.53 C17.61,6.52 16.79,5.7 15.78,5.7 Z M15.78,10.36 C14.22,10.36 12.95,9.09 12.95,7.53 C12.95,5.97 14.22,4.7 15.78,4.7 C17.34,4.7 18.61,5.97 18.61,7.53 C18.61,9.09 17.34,10.36 15.78,10.36 L15.78,10.36 Z" id="Fill-3054"></path>
                <path d="M21.78,13.95 C20.77,13.95 19.95,14.77 19.95,15.78 C19.95,16.79 20.77,17.61 21.78,17.61 C22.79,17.61 23.61,16.79 23.61,15.78 C23.61,14.77 22.79,13.95 21.78,13.95 Z M21.78,18.61 C20.22,18.61 18.95,17.34 18.95,15.78 C18.95,14.22 20.22,12.95 21.78,12.95 C23.34,12.95 24.61,14.22 24.61,15.78 C24.61,17.34 23.34,18.61 21.78,18.61 L21.78,18.61 Z" id="Fill-3055"></path>
                <path d="M11.87,23.75 C5.32,23.75 0,18.42 0,11.87 C0,5.33 5.32,0 11.87,0 C18.42,0 23.75,5.33 23.75,11.87 C23.75,12.45 23.7,13.07 23.59,13.76 L21.61,13.44 C21.71,12.85 21.75,12.35 21.75,11.87 C21.75,6.43 17.32,2 11.87,2 C6.43,2 2,6.43 2,11.87 C2,17.32 6.43,21.75 11.87,21.75 C15.17,21.75 18.23,20.12 20.07,17.38 L21.73,18.5 C19.52,21.78 15.83,23.75 11.87,23.75" id="Fill-3056"></path>
                <path d="M6.65,12.32 C5.64,12.32 4.82,13.14 4.82,14.15 C4.82,15.16 5.64,15.99 6.65,15.99 C7.67,15.99 8.49,15.16 8.49,14.15 C8.49,13.14 7.67,12.32 6.65,12.32 Z M6.65,16.99 C5.09,16.99 3.82,15.72 3.82,14.15 C3.82,12.59 5.09,11.32 6.65,11.32 C8.22,11.32 9.49,12.59 9.49,14.15 C9.49,15.72 8.22,16.99 6.65,16.99 L6.65,16.99 Z" id="Fill-3057"></path>
            </g>
        </g>
    </g>
</svg>