<?xml version="1.0" encoding="UTF-8"?>
<svg width="24px" height="25px" viewBox="0 0 24 25" version="1.1" xmlns="http://www.w3.org/2000/svg" xmlns:xlink="http://www.w3.org/1999/xlink">
    <!-- Generator: Sketch 60.1 (88133) - https://sketch.com -->
    <title>table</title>
    <desc>Created with Sketch.</desc>
    <g id="Page-1" stroke="none" stroke-width="1" fill="none" fill-rule="evenodd">
        <g id="CircleLineIcons-14" transform="translate(-896.000000, -1186.000000)" fill="#000000">
            <g id="table" transform="translate(896.243000, 1186.650000)">
                <path d="M2.106,21.4 L21.401,21.4 L21.401,2.1 L2.106,2.1 L2.106,21.4 Z M22.453,23.5 L1.053,23.5 C0.472,23.5 -5.68434189e-14,23.03 -5.68434189e-14,22.45 L-5.68434189e-14,1.05 C-5.68434189e-14,0.47 0.472,0 1.053,0 L22.453,0 C23.034,0 23.506,0.47 23.506,1.05 L23.506,22.45 C23.506,23.03 23.034,23.5 22.453,23.5 L22.453,23.5 Z" id="Fill-1109"></path>
                <path d="M22.102,8.62 L1.403,8.62 C1.111,8.62 0.876,8.39 0.876,8.1 C0.876,7.81 1.111,7.57 1.403,7.57 L22.102,7.57 C22.393,7.57 22.628,7.81 22.628,8.1 C22.628,8.39 22.393,8.62 22.102,8.62" id="Fill-1110"></path>
                <path d="M22.102,15.76 L1.403,15.76 C1.111,15.76 0.876,15.52 0.876,15.23 C0.876,14.94 1.111,14.7 1.403,14.7 L22.102,14.7 C22.393,14.7 22.628,14.94 22.628,15.23 C22.628,15.52 22.393,15.76 22.102,15.76" id="Fill-1111"></path>
                <path d="M15.319,22.54 C15.028,22.54 14.792,22.3 14.792,22.01 L14.792,1.31 C14.792,1.02 15.028,0.79 15.319,0.79 C15.61,0.79 15.845,1.02 15.845,1.31 L15.845,22.01 C15.845,22.3 15.61,22.54 15.319,22.54" id="Fill-1112"></path>
                <path d="M8.186,22.54 C7.895,22.54 7.659,22.3 7.659,22.01 L7.659,1.31 C7.659,1.02 7.895,0.79 8.186,0.79 C8.477,0.79 8.712,1.02 8.712,1.31 L8.712,22.01 C8.712,22.3 8.477,22.54 8.186,22.54" id="Fill-1113"></path>
            </g>
        </g>
    </g>
</svg>