<?xml version="1.0" encoding="UTF-8"?>
<svg width="26px" height="27px" viewBox="0 0 26 27" version="1.1" xmlns="http://www.w3.org/2000/svg" xmlns:xlink="http://www.w3.org/1999/xlink">
    <!-- Generator: Sketch 60.1 (88133) - https://sketch.com -->
    <title>tabs</title>
    <desc>Created with Sketch.</desc>
    <g id="Page-1" stroke="none" stroke-width="1" fill="none" fill-rule="evenodd">
        <g id="CircleLineIcons-14" transform="translate(-283.000000, -1123.000000)" fill="#000000">
            <g id="tabs" transform="translate(283.556000, 1123.511963)">
                <path d="M2,5.91803684 L2,23.6080368 L11.195,20.1380368 L11.195,2.44803684 L2,5.91803684 Z M1,26.0580368 C0.799,26.0580368 0.6,25.9980368 0.431,25.8780368 C0.161,25.6880368 0,25.3780368 0,25.0580368 L0,5.22803684 C0,4.80803684 0.257,4.43803684 0.646,4.28803684 L11.841,0.0680368368 C12.151,-0.0519631632 12.495,-0.0119631632 12.763,0.178036837 C13.034,0.368036837 13.195,0.668036837 13.195,0.998036837 L13.195,20.8280368 C13.195,21.2480368 12.937,21.6180368 12.548,21.7680368 L1.353,25.9880368 C1.238,26.0280368 1.119,26.0580368 1,26.0580368 L1,26.0580368 Z" id="Fill-1130"></path>
                <path d="M13.334,20.1380368 L22.529,23.6080368 L22.529,5.91803684 L13.334,2.44803684 L13.334,20.1380368 Z M23.529,26.0580368 C23.41,26.0580368 23.291,26.0280368 23.175,25.9880368 L11.98,21.7680368 C11.591,21.6180368 11.334,21.2480368 11.334,20.8280368 L11.334,0.998036837 C11.334,0.668036837 11.495,0.368036837 11.765,0.178036837 C12.034,-0.0119631632 12.377,-0.0519631632 12.687,0.0680368368 L23.882,4.28803684 C24.271,4.43803684 24.529,4.80803684 24.529,5.22803684 L24.529,25.0580368 C24.529,25.3780368 24.368,25.6880368 24.097,25.8780368 C23.928,25.9980368 23.729,26.0580368 23.529,26.0580368 L23.529,26.0580368 Z" id="Fill-1131"></path>
            </g>
        </g>
    </g>
</svg>