<?xml version="1.0" encoding="UTF-8"?>
<svg width="26px" height="19px" viewBox="0 0 26 19" version="1.1" xmlns="http://www.w3.org/2000/svg" xmlns:xlink="http://www.w3.org/1999/xlink">
    <!-- Generator: Sketch 60.1 (88133) - https://sketch.com -->
    <title>team</title>
    <desc>Created with Sketch.</desc>
    <g id="Page-1" stroke="none" stroke-width="1" fill="none" fill-rule="evenodd">
        <g id="CircleLineIcons-14" transform="translate(-834.000000, -1251.000000)" fill="#000000">
            <g id="team" transform="translate(834.235326, 1251.230000)">
                <path d="M12.6366742,2 C11.6526742,2 10.8516742,2.99 10.8516742,4.21 C10.8516742,5.43 11.6526742,6.42 12.6366742,6.42 C13.6196742,6.42 14.4196742,5.43 14.4196742,4.21 C14.4196742,2.99 13.6196742,2 12.6366742,2 Z M12.6366742,8.42 C10.5496742,8.42 8.85167419,6.53 8.85167419,4.21 C8.85167419,1.89 10.5496742,5.68434189e-14 12.6366742,5.68434189e-14 C14.7226742,5.68434189e-14 16.4196742,1.89 16.4196742,4.21 C16.4196742,6.53 14.7226742,8.42 12.6366742,8.42 L12.6366742,8.42 Z" id="Fill-903"></path>
                <path d="M8.14167419,16.21 L16.9936742,16.21 L17.1656742,13.68 C17.1966742,13.26 16.7776742,12.46 16.1376742,12.22 C13.8506742,11.4 11.2926742,11.4 8.99167419,12.23 C8.36267419,12.46 7.94167419,13.26 7.97067419,13.68 C8.02667419,14.52 8.08267419,15.36 8.14167419,16.21 Z M17.9276742,18.21 L7.20867419,18.21 C6.68467419,18.21 6.24867419,17.8 6.21167419,17.28 C6.12867419,16.12 6.05067419,14.96 5.97467419,13.82 C5.87967419,12.41 6.92667419,10.86 8.30767419,10.35 C11.0596742,9.36 14.0836742,9.36 16.8206742,10.34 C18.2116742,10.85 19.2596742,12.41 19.1616742,13.82 L18.9256742,17.28 C18.8886742,17.8 18.4526742,18.21 17.9276742,18.21 L17.9276742,18.21 Z" id="Fill-904"></path>
                <path d="M8.14167419,16.21 L16.9936742,16.21 L17.1656742,13.68 C17.1966742,13.26 16.7776742,12.46 16.1376742,12.22 C13.8506742,11.4 11.2926742,11.4 8.99167419,12.23 C8.36267419,12.46 7.94167419,13.26 7.97067419,13.68 C8.02667419,14.52 8.08267419,15.36 8.14167419,16.21 Z M17.9276742,18.21 L7.20867419,18.21 C6.68467419,18.21 6.24867419,17.8 6.21167419,17.28 C6.12867419,16.12 6.05067419,14.96 5.97467419,13.82 C5.87967419,12.41 6.92667419,10.86 8.30767419,10.35 C11.0596742,9.36 14.0836742,9.36 16.8206742,10.34 C18.2116742,10.85 19.2596742,12.41 19.1616742,13.82 L18.9256742,17.28 C18.8886742,17.8 18.4526742,18.21 17.9276742,18.21 L17.9276742,18.21 Z" id="Fill-905"></path>
                <path d="M24.4116742,16.59 L20.1446742,16.59 C19.8686742,16.59 19.6446742,16.36 19.6446742,16.09 C19.6446742,15.81 19.8686742,15.59 20.1446742,15.59 L23.9456742,15.59 L24.1186742,13.07 C24.1576742,12.52 23.6736742,11.69 22.9936742,11.44 C22.0246742,11.09 21.0036742,10.9 19.9636742,10.89 C19.6876742,10.88 19.4676742,10.65 19.4726742,10.38 C19.4776742,10.1 19.7396742,9.85 19.9816742,9.89 C21.1296742,9.91 22.2586742,10.11 23.3346742,10.5 C24.3756742,10.88 25.1906742,12.09 25.1166742,13.13 L24.9106742,16.12 C24.8926742,16.38 24.6746742,16.59 24.4116742,16.59" id="Fill-906"></path>
                <path d="M21.1286742,3.8 C20.2066742,3.8 19.4566742,4.7 19.4566742,5.8 C19.4566742,6.9 20.2066742,7.8 21.1286742,7.8 C22.0486742,7.8 22.7966742,6.9 22.7966742,5.8 C22.7966742,4.7 22.0486742,3.8 21.1286742,3.8 Z M21.1286742,8.8 C19.6556742,8.8 18.4566742,7.46 18.4566742,5.8 C18.4566742,4.15 19.6556742,2.8 21.1286742,2.8 C22.5996742,2.8 23.7966742,4.15 23.7966742,5.8 C23.7966742,7.46 22.5996742,8.8 21.1286742,8.8 L21.1286742,8.8 Z" id="Fill-907"></path>
                <path d="M4.97667419,16.59 L0.706674191,16.59 C0.444674191,16.59 0.226674191,16.38 0.207674191,16.12 L0.00467419108,13.13 C-0.0693258089,12.09 0.744674191,10.88 1.78267419,10.5 C2.86267419,10.11 3.99167419,9.91 5.13967419,9.89 C5.40967419,9.84 5.64367419,10.1 5.64867419,10.38 C5.65367419,10.65 5.43367419,10.88 5.15767419,10.89 C4.11767419,10.9 3.09667419,11.09 2.12367419,11.44 C1.44767419,11.69 0.963674191,12.52 1.00267419,13.06 L1.17367419,15.59 L4.97667419,15.59 C5.25267419,15.59 5.47667419,15.81 5.47667419,16.09 C5.47667419,16.36 5.25267419,16.59 4.97667419,16.59" id="Fill-908"></path>
                <path d="M3.99267419,3.8 C3.07267419,3.8 2.32467419,4.7 2.32467419,5.8 C2.32467419,6.9 3.07267419,7.8 3.99267419,7.8 C4.91367419,7.8 5.66367419,6.9 5.66367419,5.8 C5.66367419,4.7 4.91367419,3.8 3.99267419,3.8 Z M3.99267419,8.8 C2.52167419,8.8 1.32467419,7.46 1.32467419,5.8 C1.32467419,4.15 2.52167419,2.8 3.99267419,2.8 C5.46567419,2.8 6.66367419,4.15 6.66367419,5.8 C6.66367419,7.46 5.46567419,8.8 3.99267419,8.8 L3.99267419,8.8 Z" id="Fill-909"></path>
            </g>
        </g>
    </g>
</svg>