<?xml version="1.0" encoding="UTF-8"?>
<svg width="25px" height="17px" viewBox="0 0 25 17" version="1.1" xmlns="http://www.w3.org/2000/svg" xmlns:xlink="http://www.w3.org/1999/xlink">
    <!-- Generator: Sketch 60.1 (88133) - https://sketch.com -->
    <title>testimonial</title>
    <desc>Created with Sketch.</desc>
    <g id="Page-1" stroke="none" stroke-width="1" fill="none" fill-rule="evenodd">
        <g id="CircleLineIcons-14" transform="translate(-1202.000000, -1190.000000)" fill="#000000">
            <g id="testimonial" transform="translate(1202.000000, 1190.500000)">
                <path d="M18.41,2 C16.2,2 14.41,3.79 14.41,6 C14.41,8.21 16.2,10 18.41,10 C20.62,10 22.42,8.21 22.42,6 C22.42,3.79 20.62,2 18.41,2 Z M18.41,12 C15.1,12 12.41,9.31 12.41,6 C12.41,2.69 15.1,0 18.41,0 C21.72,0 24.42,2.69 24.42,6 C24.42,9.31 21.72,12 18.41,12 L18.41,12 Z" id="Fill-1188"></path>
                <path d="M14.61,15.81 C14.06,15.81 13.61,15.36 13.61,14.81 C13.61,14.25 14.06,13.81 14.61,13.81 C18.91,13.81 22.42,10.3 22.42,6 C22.42,5.45 22.86,5 23.42,5 C23.97,5 24.42,5.45 24.42,6 C24.42,11.41 20.02,15.81 14.61,15.81" id="Fill-1189"></path>
                <path d="M6,2 C3.79,2 2,3.79 2,6 C2,8.21 3.79,10 6,10 C8.21,10 10,8.21 10,6 C10,3.79 8.21,2 6,2 Z M6,12 C2.69,12 0,9.31 0,6 C0,2.69 2.69,0 6,0 C9.31,0 12,2.69 12,6 C12,9.31 9.31,12 6,12 L6,12 Z" id="Fill-1190"></path>
                <path d="M2.2,15.81 C1.65,15.81 1.2,15.36 1.2,14.81 C1.2,14.25 1.65,13.81 2.2,13.81 C6.5,13.81 10,10.3 10,6 C10,5.45 10.45,5 11,5 C11.56,5 12,5.45 12,6 C12,11.41 7.61,15.81 2.2,15.81" id="Fill-1191"></path>
            </g>
        </g>
    </g>
</svg>