<?xml version="1.0" encoding="UTF-8"?>
<svg width="25px" height="24px" viewBox="0 0 25 24" version="1.1" xmlns="http://www.w3.org/2000/svg" xmlns:xlink="http://www.w3.org/1999/xlink">
    <!-- Generator: Sketch 60.1 (88133) - https://sketch.com -->
    <title>timeline</title>
    <desc>Created with Sketch.</desc>
    <g id="Page-1" stroke="none" stroke-width="1" fill="none" fill-rule="evenodd">
        <g id="CircleLineIcons-14" transform="translate(-1263.000000, -939.000000)" fill="#000000">
            <g id="timeline" transform="translate(1263.800000, 939.054000)">
                <path d="M2,21.834 L21.84,21.834 L21.84,2 L2,2 L2,21.834 Z M22.84,23.834 L1,23.834 C0.45,23.834 1.13686838e-13,23.386 1.13686838e-13,22.834 L1.13686838e-13,1 C1.13686838e-13,0.447 0.45,0 1,0 L22.84,0 C23.39,0 23.84,0.447 23.84,1 L23.84,22.834 C23.84,23.386 23.39,23.834 22.84,23.834 L22.84,23.834 Z" id="Fill-3188"></path>
                <path d="M18.89,9.752 L15.02,9.752 C14.46,9.752 14.02,9.304 14.02,8.752 C14.02,8.199 14.46,7.752 15.02,7.752 L18.89,7.752 C19.44,7.752 19.89,8.199 19.89,8.752 C19.89,9.304 19.44,9.752 18.89,9.752" id="Fill-3189"></path>
                <path d="M8.39,9.752 L5.17,9.752 C4.62,9.752 4.17,9.304 4.17,8.752 C4.17,8.199 4.62,7.752 5.17,7.752 L8.39,7.752 C8.94,7.752 9.39,8.199 9.39,8.752 C9.39,9.304 8.94,9.752 8.39,9.752" id="Fill-3190"></path>
                <path d="M8.39,17.086 L5.17,17.086 C4.62,17.086 4.17,16.638 4.17,16.086 C4.17,15.533 4.62,15.086 5.17,15.086 L8.39,15.086 C8.94,15.086 9.39,15.533 9.39,16.086 C9.39,16.638 8.94,17.086 8.39,17.086" id="Fill-3191"></path>
                <path d="M9.67,9.418 L11,9.418 L11,8.086 L9.67,8.086 L9.67,9.418 Z M12,11.418 L8.67,11.418 C8.12,11.418 7.67,10.97 7.67,10.418 L7.67,7.086 C7.67,6.533 8.12,6.086 8.67,6.086 L12,6.086 C12.55,6.086 13,6.533 13,7.086 L13,10.418 C13,10.97 12.55,11.418 12,11.418 L12,11.418 Z" id="Fill-3192"></path>
                <path d="M18.89,17.086 L15.02,17.086 C14.46,17.086 14.02,16.638 14.02,16.086 C14.02,15.533 14.46,15.086 15.02,15.086 L18.89,15.086 C19.44,15.086 19.89,15.533 19.89,16.086 C19.89,16.638 19.44,17.086 18.89,17.086" id="Fill-3193"></path>
                <path d="M9.67,16.752 L11,16.752 L11,15.419 L9.67,15.419 L9.67,16.752 Z M12,18.752 L8.67,18.752 C8.12,18.752 7.67,18.304 7.67,17.752 L7.67,14.419 C7.67,13.866 8.12,13.419 8.67,13.419 L12,13.419 C12.55,13.419 13,13.866 13,14.419 L13,17.752 C13,18.304 12.55,18.752 12,18.752 L12,18.752 Z" id="Fill-3194"></path>
                <path d="M4.67,17.086 C4.12,17.086 3.67,16.638 3.67,16.086 L3.67,4.532 C3.67,3.979 4.12,3.532 4.67,3.532 C5.22,3.532 5.67,3.979 5.67,4.532 L5.67,16.086 C5.67,16.638 5.22,17.086 4.67,17.086" id="Fill-3195"></path>
            </g>
        </g>
    </g>
</svg>