<?xml version="1.0" encoding="UTF-8"?>
<svg width="25px" height="18px" viewBox="0 0 25 18" version="1.1" xmlns="http://www.w3.org/2000/svg" xmlns:xlink="http://www.w3.org/1999/xlink">
    <!-- Generator: Sketch 60.1 (88133) - https://sketch.com -->
    <title>video</title>
    <desc>Created with Sketch.</desc>
    <g id="Page-1" stroke="none" stroke-width="1" fill="none" fill-rule="evenodd">
        <g id="CircleLineIcons-14" transform="translate(-529.000000, -1437.000000)" fill="#000000">
            <g id="video" transform="translate(528.998750, 1437.255000)">
                <path d="M2.67825,15.125 C8.88325,15.815 15.14725,15.815 21.35225,15.125 C22.25525,10.935 22.25525,6.705 21.35225,2.525 C15.14725,1.825 8.88325,1.825 2.67825,2.525 C1.77425,6.705 1.77425,10.935 2.67825,15.125 Z M12.01525,17.645 C8.60525,17.645 5.14825,17.435 1.73925,17.025 C1.32425,16.975 0.98425,16.675 0.88725,16.265 C-0.29575,11.325 -0.29575,6.315 0.88725,1.375 C0.98425,0.975 1.32425,0.665 1.73925,0.615 C8.55825,-0.205 15.47225,-0.205 22.29025,0.615 C22.70525,0.665 23.04525,0.975 23.14325,1.375 C24.32525,6.315 24.32525,11.325 23.14325,16.265 C23.04525,16.675 22.70525,16.975 22.29025,17.025 C18.88125,17.435 15.42425,17.645 12.01525,17.645 L12.01525,17.645 Z" id="Fill-1795"></path>
                <path d="M10.56825,6.335 L10.56825,11.315 L14.88525,8.825 L10.56825,6.335 Z M9.96925,13.725 C9.17125,13.725 8.56825,13.075 8.56825,12.215 L8.56825,5.435 C8.56825,4.565 9.17025,3.915 9.96925,3.915 C10.24725,3.915 10.52325,3.995 10.79025,4.145 L16.66425,7.545 C17.17025,7.835 17.46325,8.295 17.46325,8.825 C17.46325,9.345 17.17225,9.815 16.66325,10.105 L10.78925,13.495 C10.52225,13.655 10.24725,13.725 9.96925,13.725 L9.96925,13.725 Z" id="Fill-1796"></path>
            </g>
        </g>
    </g>
</svg>