<?xml version="1.0" encoding="UTF-8"?>
<svg width="24px" height="24px" viewBox="0 0 24 24" version="1.1" xmlns="http://www.w3.org/2000/svg" xmlns:xlink="http://www.w3.org/1999/xlink">
    <!-- Generator: Sketch 60.1 (88133) - https://sketch.com -->
    <title>widget</title>
    <desc>Created with Sketch.</desc>
    <g id="Page-1" stroke="none" stroke-width="1" fill="none" fill-rule="evenodd">
        <g id="CircleLineIcons-14" transform="translate(-835.000000, -877.000000)" fill="#000000">
            <g id="widget" transform="translate(835.082000, 877.355499)">
                <path d="M4.019,9.61450092 L2.046,11.5875009 C2.008,11.6255009 2,11.6655009 2,11.6945009 C2,11.7225009 2.008,11.7625009 2.045,11.7985009 L11.608,21.3645009 C11.698,21.4515009 11.77,21.4155009 11.817,21.3665009 L13.794,19.3905009 C13.581,19.2455009 13.382,19.0795009 13.197,18.8965009 C11.535,17.2325009 11.535,14.5295009 13.196,12.8695009 C14,12.0645009 15.069,11.6215009 16.208,11.6215009 C17.347,11.6215009 18.417,12.0645009 19.222,12.8695009 C19.406,13.0535009 19.572,13.2535009 19.718,13.4665009 L21.384,11.8005009 C21.422,11.7625009 21.43,11.7225009 21.43,11.6945009 C21.43,11.6655009 21.422,11.6255009 21.386,11.5895009 L18.093,8.29350092 C17.797,7.99750092 17.717,7.54750092 17.892,7.16750092 C18.066,6.78850092 18.444,6.56150092 18.878,6.58950092 C19.545,6.64050092 20.194,6.41050092 20.658,5.94750092 C21.538,5.06850092 21.538,3.63350092 20.657,2.75250092 C19.802,1.89950092 18.314,1.90050092 17.458,2.75250092 C16.999,3.21150092 16.766,3.86050092 16.818,4.53050092 C16.851,4.94750092 16.62,5.34050092 16.24,5.51650092 C15.86,5.69150092 15.412,5.61150092 15.114,5.31550092 L11.819,2.02350092 C11.746,1.95050092 11.68,1.95350092 11.608,2.02350092 L9.942,3.68950092 C10.156,3.83550092 10.356,4.00050092 10.54,4.18550092 C12.2,5.84850092 12.2,8.55150092 10.54,10.2115009 C9.735,11.0175009 8.664,11.4605009 7.525,11.4605009 C6.387,11.4605009 5.317,11.0165009 4.514,10.2105009 C4.33,10.0275009 4.164,9.82750092 4.019,9.61450092 Z M11.715,23.4085009 L11.715,23.4085009 C11.141,23.4085009 10.601,23.1845009 10.194,22.7785009 L0.632,13.2145009 C0.226,12.8105009 0,12.2695009 0,11.6945009 C0.001,11.1195009 0.226,10.5785009 0.633,10.1715009 L3.636,7.16750092 C3.895,6.90850092 4.272,6.81150092 4.627,6.91550092 C4.979,7.02050092 5.244,7.30850092 5.321,7.66650092 C5.413,8.10150092 5.624,8.49250092 5.929,8.79750092 C6.783,9.65550092 8.272,9.65350092 9.126,8.79750092 C10.007,7.91650092 10.007,6.48150092 9.125,5.59950092 C8.82,5.29450092 8.43,5.08350092 7.996,4.99250092 C7.637,4.91550092 7.35,4.64850092 7.245,4.29750092 C7.142,3.94650092 7.238,3.56550092 7.497,3.30650092 L10.194,0.609500921 C11.008,-0.204499079 12.426,-0.202499079 13.235,0.611500921 L15.193,2.56750092 C15.399,2.11450092 15.686,1.69750092 16.044,1.33850092 C16.849,0.534500921 17.919,0.0905009214 19.058,0.0905009214 C20.195,0.0905009214 21.266,0.534500921 22.071,1.33850092 C23.732,2.99950092 23.732,5.70250092 22.071,7.36350092 C21.71,7.72350092 21.294,8.00950092 20.842,8.21550092 L22.798,10.1735009 C23.204,10.5785009 23.429,11.1195009 23.43,11.6945009 C23.43,12.2695009 23.204,12.8105009 22.797,13.2165009 L20.101,15.9135009 C19.841,16.1735009 19.46,16.2705009 19.108,16.1645009 C18.756,16.0595009 18.49,15.7705009 18.415,15.4115009 C18.325,14.9815009 18.114,14.5905009 17.807,14.2825009 C16.957,13.4325009 15.465,13.4295009 14.611,14.2835009 C13.73,15.1645009 13.73,16.5985009 14.61,17.4805009 C14.918,17.7865009 15.309,17.9975009 15.739,18.0875009 C16.098,18.1645009 16.387,18.4305009 16.491,18.7825009 C16.596,19.1335009 16.499,19.5145009 16.239,19.7735009 L13.233,22.7785009 C12.831,23.1835009 12.29,23.4085009 11.715,23.4085009 L11.715,23.4085009 Z" id="Fill-1999"></path>
            </g>
        </g>
    </g>
</svg>